<?xml version="1.0" encoding="iso-8859-1"?>
<!-- Generator: Adobe Illustrator 16.0.0, SVG Export Plug-In . SVG Version: 6.00 Build 0)  -->
<!DOCTYPE svg PUBLIC "-//W3C//DTD SVG 1.1//EN" "http://www.w3.org/Graphics/SVG/1.1/DTD/svg11.dtd">
<svg version="1.1" id="Layer_1" xmlns="http://www.w3.org/2000/svg" xmlns:xlink="http://www.w3.org/1999/xlink" x="0px" y="0px"
	 width="1224px" height="792px" viewBox="0 0 1224 792" style="enable-background:new 0 0 1224 792;" xml:space="preserve">
<g>
	<path style="fill:#D8D6D6;" d="M221.018,300.14V191.807h25.192c13.58,0,20.375,6.938,20.375,20.821v71.823
		c0,10.46-5.786,15.688-17.352,15.688H221.018z M235.501,287.016h10.865c3.817,0,5.729-1.611,5.729-4.836v-69.401
		c0-5.23-2.162-7.845-6.485-7.845h-10.109V287.016z"/>
	<path style="fill:#D8D6D6;" d="M279.408,300.14V191.807h14.486V300.14H279.408z"/>
	<path style="fill:#D8D6D6;" d="M329.801,260.457v-13.124h22.027v52.807h-28.36c-11.171,0-16.753-6.089-16.753-18.259v-71.515
		c0-12.377,5.583-18.56,16.753-18.56h9.956c12.269,0,18.404,6.289,18.404,18.859v11.768h-14.483v-9.656
		c0-5.23-2.065-7.845-6.183-7.845h-3.624c-4.223,0-6.341,2.615-6.341,7.845v66.39c0,5.236,2.118,7.848,6.341,7.848h9.806v-26.56
		H329.801z"/>
	<path style="fill:#D8D6D6;" d="M363.6,300.14V191.807h14.486V300.14H363.6z"/>
	<path style="fill:#D8D6D6;" d="M414.748,204.934v95.206h-14.485v-95.206H386.38v-13.127h42.249v13.127H414.748z"/>
	<path style="fill:#D8D6D6;" d="M450.658,300.14h-14.485v-89.773c0-12.377,5.78-18.56,17.348-18.56h10.868
		c11.562,0,17.348,6.183,17.348,18.56v89.773h-14.483v-39.684h-16.595V300.14z M467.253,247.333v-36.064
		c0-4.223-2.112-6.335-6.332-6.335h-3.927c-4.224,0-6.336,2.112-6.336,6.335v36.064H467.253z"/>
	<path style="fill:#D8D6D6;" d="M528.964,300.14h-34.401V191.807h14.486v95.209h19.915V300.14z"/>
	<path style="fill:#D8D6D6;" d="M589.165,220.926v-9.506c0-4.323-2.116-6.485-6.34-6.485h-2.26c-4.13,0-6.188,2.162-6.188,6.485
		v17.957c0,2.015,0.399,3.374,1.205,4.071c0.807,0.711,2.111,1.614,3.925,2.717l13.729,7.391c3.019,1.715,5.153,3.047,6.412,4
		s2.236,2.112,2.941,3.471c0.705,1.358,1.059,3.953,1.059,7.777v23.078c0,12.17-5.835,18.259-17.507,18.259h-8.898
		c-11.572,0-17.354-6.635-17.354-19.912v-5.436h14.489v5.882c0,4.225,2.164,6.342,6.487,6.342h2.559
		c3.825,0,5.741-2.117,5.741-6.342v-18.406c0-2.012-0.405-3.365-1.211-4.077c-0.801-0.7-2.111-1.606-3.917-2.712l-13.73-7.694
		c-3.021-1.612-5.212-2.965-6.567-4.077c-1.356-1.106-2.336-2.542-2.938-4.303c-0.608-1.756-0.912-4.047-0.912-6.862v-22.177
		c0-12.377,5.782-18.56,17.354-18.56h9.052c11.566,0,17.354,6.183,17.354,18.56v10.559H589.165z"/>
	<path style="fill:#D8D6D6;" d="M638.802,204.934v95.206H624.32v-95.206h-13.889v-13.127h42.249v13.127H638.802z"/>
	<path style="fill:#D8D6D6;" d="M660.981,300.14V191.807h35.905v13.127h-21.423v32.89h19.013v13.132h-19.013v36.06h21.423v13.124
		H660.981z"/>
	<path style="fill:#D8D6D6;" d="M737.324,244.162v-52.355h14.482V300.14h-14.482v-21.571l-15.542-49.346v70.917H707.3V191.807
		h14.482L737.324,244.162z"/>
	<path style="fill:#D8D6D6;" d="M808.69,274.792v6.941c0,12.271-5.781,18.406-17.354,18.406h-9.352
		c-11.566,0-17.354-6.135-17.354-18.406v-71.52c0-12.271,5.788-18.407,17.354-18.407h9.352c11.572,0,17.354,6.135,17.354,18.407
		v12.221h-14.482v-11.166c0-4.223-2.164-6.335-6.481-6.335h-2.871c-3.83,0-5.729,2.112-5.729,6.335v69.405
		c0,4.225,1.899,6.342,5.729,6.342h3.618c3.829,0,5.734-2.117,5.734-6.342v-5.882H808.69z"/>
	<path style="fill:#D8D6D6;" d="M820.01,300.14V191.807h14.482V300.14H820.01z"/>
	<path style="fill:#D8D6D6;" d="M882.471,300.14h-34.395V191.807h14.482v95.209h19.912V300.14z"/>
</g>
<g>
	<path style="fill:#A5A4A4;" d="M226.298,294.864V186.527h25.192c13.58,0,20.375,6.939,20.375,20.822v71.819
		c0,10.46-5.785,15.695-17.351,15.695H226.298z M240.781,281.734h10.865c3.817,0,5.729-1.605,5.729-4.83v-69.405
		c0-5.23-2.161-7.844-6.485-7.844h-10.109V281.734z"/>
	<path style="fill:#A5A4A4;" d="M284.688,294.864V186.527h14.486v108.336H284.688z"/>
	<path style="fill:#A5A4A4;" d="M335.081,255.18v-13.126h22.027v52.811h-28.359c-11.172,0-16.754-6.089-16.754-18.26v-71.517
		c0-12.377,5.582-18.56,16.754-18.56h9.956c12.268,0,18.404,6.289,18.404,18.859v11.769h-14.483v-9.656
		c0-5.23-2.065-7.844-6.183-7.844h-3.624c-4.223,0-6.341,2.614-6.341,7.844v66.387c0,5.235,2.118,7.848,6.341,7.848h9.807V255.18
		H335.081z"/>
	<path style="fill:#A5A4A4;" d="M368.879,294.864V186.527h14.485v108.336H368.879z"/>
	<path style="fill:#A5A4A4;" d="M420.028,199.655v95.209h-14.485v-95.209H391.66v-13.127h42.249v13.127H420.028z"/>
	<path style="fill:#A5A4A4;" d="M455.938,294.864h-14.486v-89.776c0-12.377,5.78-18.56,17.348-18.56h10.868
		c11.562,0,17.348,6.183,17.348,18.56v89.776h-14.482V255.18h-16.595V294.864z M472.533,242.053V205.99
		c0-4.224-2.112-6.335-6.333-6.335h-3.926c-4.224,0-6.336,2.112-6.336,6.335v36.063H472.533z"/>
	<path style="fill:#A5A4A4;" d="M534.243,294.864h-34.4V186.527h14.485v95.207h19.915V294.864z"/>
	<path style="fill:#A5A4A4;" d="M594.441,215.646v-9.506c0-4.323-2.11-6.485-6.333-6.485h-2.266c-4.13,0-6.189,2.162-6.189,6.485
		v17.957c0,2.015,0.406,3.374,1.207,4.071c0.805,0.711,2.117,1.615,3.929,2.718l13.731,7.391c3.012,1.715,5.151,3.044,6.412,4
		c1.253,0.956,2.233,2.112,2.939,3.473c0.701,1.359,1.053,3.947,1.053,7.771v23.083c0,12.171-5.835,18.26-17.499,18.26h-8.906
		c-11.565,0-17.351-6.636-17.351-19.919v-5.435h14.484v5.889c0,4.224,2.164,6.335,6.488,6.335h2.565
		c3.823,0,5.734-2.111,5.734-6.335v-18.407c0-2.012-0.405-3.365-1.205-4.077c-0.807-0.7-2.116-1.606-3.918-2.712l-13.735-7.697
		c-3.018-1.611-5.206-2.964-6.564-4.077c-1.359-1.105-2.336-2.541-2.938-4.303c-0.609-1.756-0.911-4.047-0.911-6.862v-22.177
		c0-12.377,5.785-18.56,17.351-18.56h9.059c11.564,0,17.347,6.183,17.347,18.56v10.559H594.441z"/>
	<path style="fill:#A5A4A4;" d="M644.081,199.655v95.209h-14.483v-95.209h-13.889v-13.127h42.249v13.127H644.081z"/>
	<path style="fill:#A5A4A4;" d="M666.258,294.864V186.527h35.912v13.127h-21.425v32.889h19.013v13.133h-19.013v36.057h21.425v13.13
		H666.258z"/>
	<path style="fill:#A5A4A4;" d="M742.607,238.882v-52.355h14.482v108.336h-14.482v-21.577l-15.543-49.343v70.92h-14.482V186.527
		h14.482L742.607,238.882z"/>
	<path style="fill:#A5A4A4;" d="M813.975,269.51v6.941c0,12.271-5.79,18.412-17.354,18.412h-9.353
		c-11.565,0-17.354-6.142-17.354-18.412v-71.518c0-12.271,5.789-18.407,17.354-18.407h9.353c11.564,0,17.354,6.136,17.354,18.407
		v12.221h-14.483V205.99c0-4.224-2.164-6.335-6.488-6.335h-2.871c-3.83,0-5.729,2.112-5.729,6.335v69.409
		c0,4.224,1.899,6.335,5.729,6.335h3.618c3.83,0,5.741-2.111,5.741-6.335v-5.889H813.975z"/>
	<path style="fill:#A5A4A4;" d="M825.292,294.864V186.527h14.484v108.336H825.292z"/>
	<path style="fill:#A5A4A4;" d="M887.754,294.864h-34.401V186.527h14.482v95.207h19.919V294.864z"/>
</g>
<g>
	<path style="fill:#666766;" d="M231.578,289.582V181.248h25.192c13.58,0,20.374,6.938,20.374,20.821v71.817
		c0,10.466-5.785,15.695-17.351,15.695H231.578z M246.06,276.452h10.865c3.818,0,5.73-1.601,5.73-4.824V202.22
		c0-5.23-2.162-7.845-6.486-7.845H246.06V276.452z"/>
	<path style="fill:#666766;" d="M289.968,289.582V181.248h14.485v108.333H289.968z"/>
	<path style="fill:#666766;" d="M340.361,249.897v-13.124h22.027v52.808h-28.359c-11.171,0-16.754-6.083-16.754-18.26v-71.514
		c0-12.377,5.583-18.56,16.754-18.56h9.956c12.268,0,18.404,6.289,18.404,18.859v11.768h-14.483v-9.656
		c0-5.23-2.065-7.845-6.183-7.845h-3.624c-4.224,0-6.341,2.615-6.341,7.845v66.39c0,5.229,2.118,7.842,6.341,7.842h9.806v-26.554
		H340.361z"/>
	<path style="fill:#666766;" d="M374.159,289.582V181.248h14.486v108.333H374.159z"/>
	<path style="fill:#666766;" d="M425.308,194.375v95.207h-14.486v-95.207h-13.883v-13.127h42.249v13.127H425.308z"/>
	<path style="fill:#666766;" d="M461.218,289.582h-14.486v-89.774c0-12.377,5.78-18.56,17.348-18.56h10.868
		c11.562,0,17.348,6.183,17.348,18.56v89.774h-14.482v-39.684h-16.595V289.582z M477.812,236.774v-36.063
		c0-4.224-2.111-6.336-6.333-6.336h-3.926c-4.223,0-6.335,2.112-6.335,6.336v36.063H477.812z"/>
	<path style="fill:#666766;" d="M539.523,289.582h-34.401V181.248h14.486v95.204h19.915V289.582z"/>
	<path style="fill:#666766;" d="M599.721,210.367v-9.506c0-4.323-2.107-6.485-6.331-6.485h-2.27c-4.131,0-6.189,2.162-6.189,6.485
		v17.957c0,2.015,0.406,3.374,1.211,4.07c0.801,0.712,2.112,1.615,3.924,2.718l13.735,7.391c3.013,1.715,5.147,3.044,6.413,4
		c1.248,0.956,2.235,2.112,2.935,3.474c0.702,1.356,1.054,3.947,1.054,7.768v23.083c0,12.177-5.836,18.26-17.494,18.26h-8.907
		c-11.57,0-17.353-6.636-17.353-19.919v-5.429h14.482v5.888c0,4.224,2.166,6.33,6.495,6.33h2.565c3.816,0,5.729-2.106,5.729-6.33
		v-18.412c0-2.012-0.401-3.365-1.208-4.071c-0.805-0.706-2.111-1.612-3.917-2.718l-13.735-7.694
		c-3.013-1.612-5.207-2.965-6.564-4.077c-1.354-1.106-2.33-2.542-2.936-4.303c-0.606-1.756-0.912-4.047-0.912-6.862v-22.177
		c0-12.377,5.782-18.56,17.353-18.56h9.061c11.558,0,17.341,6.183,17.341,18.56v10.559H599.721z"/>
	<path style="fill:#666766;" d="M649.357,194.375v95.207h-14.483v-95.207H620.99v-13.127h42.249v13.127H649.357z"/>
	<path style="fill:#666766;" d="M671.534,289.582V181.248h35.92v13.127h-21.426v32.889h19.007v13.133h-19.007v36.054h21.426v13.13
		H671.534z"/>
	<path style="fill:#666766;" d="M747.889,233.603v-52.355h14.482v108.333h-14.482v-21.577l-15.54-49.34v70.917h-14.483V181.248
		h14.483L747.889,233.603z"/>
	<path style="fill:#666766;" d="M819.256,264.233v6.935c0,12.277-5.787,18.413-17.353,18.413h-9.354
		c-11.572,0-17.354-6.136-17.354-18.413v-71.514c0-12.271,5.782-18.407,17.354-18.407h9.354c11.565,0,17.353,6.135,17.353,18.407
		v12.221h-14.488v-11.165c0-4.224-2.159-6.336-6.488-6.336h-2.871c-3.823,0-5.729,2.112-5.729,6.336v69.411
		c0,4.224,1.906,6.33,5.729,6.33h3.624c3.824,0,5.735-2.106,5.735-6.33v-5.888H819.256z"/>
	<path style="fill:#666766;" d="M830.569,289.582V181.248h14.482v108.333H830.569z"/>
	<path style="fill:#666766;" d="M893.035,289.582h-34.399V181.248h14.482v95.204h19.917V289.582z"/>
</g>
<g>
	<path d="M236.857,284.31V175.969h25.192c13.581,0,20.375,6.944,20.375,20.83v71.817c0,10.465-5.786,15.694-17.356,15.694H236.857z
		 M251.339,271.181h10.859c3.824,0,5.735-1.612,5.735-4.824v-69.411c0-5.23-2.164-7.842-6.485-7.842h-10.11V271.181z"/>
	<path d="M295.244,284.31V175.969h14.489V284.31H295.244z"/>
	<path d="M345.64,244.626V231.5h22.027v52.81h-28.366c-11.165,0-16.75-6.083-16.75-18.259v-71.521
		c0-12.371,5.585-18.562,16.75-18.562h9.959c12.271,0,18.406,6.294,18.406,18.865v11.766h-14.483v-9.653
		c0-5.23-2.064-7.842-6.191-7.842h-3.614c-4.233,0-6.342,2.612-6.342,7.842v66.387c0,5.229,2.109,7.848,6.342,7.848h9.806v-26.554
		H345.64z"/>
	<path d="M379.433,284.31V175.969h14.488V284.31H379.433z"/>
	<path d="M430.587,189.104v95.206h-14.489v-95.206h-13.88v-13.135h42.246v13.135H430.587z"/>
	<path d="M466.494,284.31h-14.485v-89.779c0-12.371,5.782-18.562,17.351-18.562h10.862c11.568,0,17.353,6.191,17.353,18.562v89.779
		h-14.482v-39.684h-16.598V284.31z M483.092,231.5v-36.063c0-4.224-2.112-6.333-6.333-6.333h-3.929
		c-4.227,0-6.336,2.109-6.336,6.333V231.5H483.092z"/>
	<path d="M544.804,284.31h-34.405V175.969h14.483v95.212h19.922V284.31z"/>
	<path d="M605.001,205.09v-9.5c0-4.323-2.116-6.485-6.34-6.485h-2.26c-4.129,0-6.188,2.162-6.188,6.485v17.954
		c0,2.015,0.401,3.371,1.213,4.071c0.799,0.708,2.104,1.615,3.918,2.717l13.729,7.392c3.024,1.712,5.152,3.044,6.413,4.003
		c1.258,0.956,2.235,2.108,2.94,3.47c0.705,1.353,1.059,3.947,1.059,7.769v23.086c0,12.176-5.835,18.259-17.499,18.259h-8.901
		c-11.576,0-17.354-6.641-17.354-19.918v-5.436h14.482v5.883c0,4.229,2.16,6.341,6.489,6.341h2.564c3.818,0,5.734-2.112,5.734-6.341
		v-18.401c0-2.015-0.398-3.371-1.212-4.077c-0.804-0.703-2.104-1.609-3.923-2.712l-13.725-7.703
		c-3.023-1.605-5.212-2.958-6.564-4.071c-1.365-1.106-2.341-2.539-2.94-4.3c-0.606-1.759-0.906-4.047-0.906-6.862v-22.183
		c0-12.371,5.777-18.562,17.354-18.562h9.047c11.565,0,17.354,6.191,17.354,18.562v10.559H605.001z"/>
	<path d="M654.638,189.104v95.206H640.15v-95.206h-13.877v-13.135h42.249v13.135H654.638z"/>
	<path d="M676.817,284.31V175.969h35.912v13.135h-21.425v32.884h19.008v13.133h-19.008v36.06h21.425v13.129H676.817z"/>
	<path d="M753.166,228.332v-52.363h14.482V284.31h-14.482v-21.577l-15.549-49.34v70.917h-14.482V175.969h14.482L753.166,228.332z"/>
	<path d="M824.534,258.957v6.942c0,12.277-5.785,18.412-17.361,18.412h-9.347c-11.571,0-17.354-6.135-17.354-18.412v-71.521
		c0-12.266,5.783-18.409,17.354-18.409h9.347c11.576,0,17.361,6.144,17.361,18.409v12.221h-14.49v-11.162
		c0-4.224-2.164-6.333-6.481-6.333h-2.871c-3.825,0-5.736,2.109-5.736,6.333v69.402c0,4.229,1.911,6.341,5.736,6.341h3.623
		c3.824,0,5.729-2.112,5.729-6.341v-5.883H824.534z"/>
	<path d="M835.846,284.31V175.969h14.482V284.31H835.846z"/>
	<path d="M898.312,284.31h-34.395V175.969h14.482v95.212h19.912V284.31z"/>
</g>
</svg>
