<?xml version="1.0" encoding="iso-8859-1"?>
<!-- Generator: Adobe Illustrator 16.0.0, SVG Export Plug-In . SVG Version: 6.00 Build 0)  -->
<!DOCTYPE svg PUBLIC "-//W3C//DTD SVG 1.1//EN" "http://www.w3.org/Graphics/SVG/1.1/DTD/svg11.dtd">
<svg version="1.1" id="Layer_1" xmlns="http://www.w3.org/2000/svg" xmlns:xlink="http://www.w3.org/1999/xlink" x="0px" y="0px"
	 width="792px" height="612px" viewBox="0 0 792 612" style="enable-background:new 0 0 792 612;" xml:space="preserve">
<g style="display:none;">
	<path style="display:inline;fill:#D4E48D;" d="M122.68,218.459c-0.526-1.44-0.393-2.221,1.3-2.48
		c9.001-1.174,15.523-6.394,24.002-7.695c8.348-1.306,14.87,3.001,19.696,11.475c11.995,20.868-11.22,58.956-46.173,70.562
		c-3.785,1.307-6.133,0.914-8.348-0.908c-1.565-1.307-3.653-2.999-5.479-5.613c-2.48-3.386-3.133-5.347-0.393-13.82
		c4.045-12.263,14.867-32.611,23.868-46.046C126.067,223.673,123.461,220.413,122.68,218.459z M134.675,236.327
		c-6.521,11.608-17.084,28.953-20.868,40.952c-1.695,5.482-0.781,7.306,3.133,5.875c35.605-13.566,52.04-50.872,44.345-63.133
		c-4.566-7.301-14.088-0.388-23.217,2.612C138.721,225.892,137.936,230.586,134.675,236.327z"/>
	<path style="display:inline;fill:#D4E48D;" d="M164.45,272.193c3.26-9.52,11.868-24.911,16.697-31.692
		c1.173-1.568,2.085-1.96,3.131-0.785c1.956,2.089,3.001,7.695-0.132,14.222c-2.741,5.732-8.215,14.606-10.956,21.126
		c-3.132,7.564-2.873,12.648,1.301,12.391c5.873-0.264,13.046-8.87,16.961-17.869c0.648-1.175,1.562-1.043,2.087,0
		c1.041,2.085,0.648,4.828-0.913,8.085c-3.914,8.087-12.134,13.562-19.437,13.562C163.277,291.234,160.797,282.886,164.45,272.193z
		 M193.54,238.155c-1.7,1.821-5.348,1.436-7.306-1.96c-2.087-3.522-1.434-7.435,0.651-9.654c2.088-2.214,5.869-0.648,7.564,2.873
		C196.146,232.799,195.234,236.327,193.54,238.155z"/>
	<path style="display:inline;fill:#D4E48D;" d="M219.241,294.626c-7.174,17.477-16.435,38.22-26.997,42.395
		c-2.607,1.039-5.22,0.65-7.566-2.742c-2.741-3.914-5.089-8.474-2.608-16.178c3.781-11.734,15.001-19.69,27.911-24.646
		c1.307-2.868,2.48-6,3.787-9c-3.787,3.785-8.349,6.521-13.175,6.521c-12,0-14.349-16.306-3.78-31.954
		c10.168-15.134,20.735-21.004,27.389-21.004c5.214,0,7.822,4.042,7.694,8.609c1.567-2.607,3.001-4.954,4.301-7.174
		c1.046-1.829,2.353-1.954,3.26-0.778c1.96,2.342,3.001,7.952-0.259,14.348c-3.914,7.821-12.129,23.604-17.609,36.257
		c10.96-5.481,18.134-12.652,23.35-19.562c0.786-1.046,1.959-1.046,2.22,0.261c0.26,1.171-0.393,4.042-2.612,7.56
		C239.457,285.499,230.068,290.713,219.241,294.626z M187.29,329.716c1.694,2.478,11.995-11.085,20.476-30.911
		C190.811,308.718,185.07,326.586,187.29,329.716z M226.155,244.675c-4.041-0.264-13.563,8.082-20.737,19.43
		c-7.046,11.22-8.479,22.694-3.261,22.829c5.089,0.128,11.736-8.088,18.391-19.562C228.762,253.024,229.936,244.933,226.155,244.675
		z"/>
	<path style="display:inline;fill:#D4E48D;" d="M243.01,272.193c3.26-9.52,11.868-24.911,16.696-31.692
		c1.173-1.568,2.085-1.96,3.131-0.785c1.956,2.089,3.001,7.695-0.131,14.222c-2.741,5.732-8.215,14.606-10.956,21.126
		c-3.132,7.564-2.873,12.648,1.302,12.391c5.872-0.264,13.046-8.87,16.96-17.869c0.648-1.175,1.562-1.043,2.086,0
		c1.042,2.085,0.649,4.828-0.912,8.085c-3.914,8.087-12.134,13.562-19.437,13.562C241.837,291.234,239.356,282.886,243.01,272.193z
		 M272.099,238.155c-1.699,1.821-5.348,1.436-7.306-1.96c-2.087-3.522-1.434-7.435,0.653-9.654c2.086-2.214,5.868-0.648,7.562,2.873
		C274.706,232.799,273.793,236.327,272.099,238.155z"/>
	<path style="display:inline;fill:#D4E48D;" d="M276.803,235.155c-1.305-1.828-0.525-2.742,1.436-2.613
		c3.653,0.131,7.3-0.129,10.827-0.521c4.041-7.174,7.693-13.302,9.908-16.175c1.174-1.692,2.48-1.56,3.134,0
		c1.434,3.653,1.434,7.959-1.694,14.741c5.083-0.132,7.042,2.213,8.083,3.912c0.913,1.564,0.393,2.478-1.561,2.478
		c-2.875-0.389-6.915,0-10.176,0.525c-5.086,8.735-12.521,21.387-17.481,32.342c-4.301,9.521-2.868,17.612,2.614,17.869
		c5.867,0.261,13.302-8.998,18.128-18.783c0.78-1.557,2.214-1.824,2.74,0c0.654,2.089,0,4.436-1.306,7.436
		c-1.692,3.788-10.302,15.262-20.737,14.869c-8.612-0.256-15.521-9.906-9.259-24.911c2.738-6.521,8.213-17.477,13.821-27.782
		C280.846,238.541,277.845,236.587,276.803,235.155z"/>
	<path style="display:inline;fill:#D4E48D;" d="M343.857,238.933c1.178-1.692,2.219-1.957,3.134-0.778
		c1.954,2.346,3,7.956-0.134,14.477c-2.868,5.864-9.388,15.648-12.522,22.562c-3.26,7.306-3.388,12.913,1.046,12.656
		c5.348-0.264,12.521-9.134,17.088-18.13c0.649-1.175,1.561-1.307,2.087-0.132c0.52,1.171,0.52,4.435-1.175,8.085
		c-3.392,7.177-11.607,14.348-18.781,13.955c-7.048-0.393-10.701-4.564-10.701-10.692c-4.174,5.346-10.042,10.17-16.302,10.17
		c-12.129,0-14.609-16.566-3.781-32.346c10.563-15.391,20.868-21.258,27.391-21.258c5.606,0,8.213,4.303,7.954,9.388
		C340.863,243.761,342.423,241.019,343.857,238.933z M333.428,244.282c-4.174-0.393-13.702,8.085-20.869,19.698
		c-6.916,11.212-8.613,22.693-3.526,22.819c5.348,0.135,12.134-8.214,18.782-19.694
		C336.035,252.757,337.208,244.675,333.428,244.282z"/>
	<path style="display:inline;fill:#D4E48D;" d="M362.017,287.327c6.262,0.521,15.389-8.874,20.477-18.915
		c0.914-1.696,2.348-1.825,2.868,0c0.653,2.089,0.134,4.953-1.3,8.088c-1.827,3.914-11.349,14.733-21.784,14.477
		c-9-0.265-13.828-6.521-10.827-20.612c4.826-22.691,19.696-46.3,32.998-60.126c1.958-2.087,3.785-2.348,5.611-0.654
		c3.782,3.393,4.562,8.221,3.001,14.349c-4.047,16.042-18.655,31.698-30.264,39.261
		C357.584,275.979,356.145,286.799,362.017,287.327z M388.622,221.193c-1.693-1.042-11.342,13.434-20.343,30.132
		c-1.174,2.085-2.22,4.171-3.133,6.26C383.015,243.108,390.321,222.239,388.622,221.193z"/>
	<path style="display:inline;fill:#D4E48D;" d="M417.604,274.54c5.222,4.175,14.092,10.959,22.568,10.959
		c3.65,0,6.39-0.914,8.085-2.346c2.218-2.482,1.564-5.221-0.261-6.788c-6.91-5.864-27.518-13.956-27.518-27.39
		c0-17.868,20.215-33.13,31.824-38.085c6.26-2.606,12.521-3.653,16.823,0.261c3.261,3.001,5.613,7.308,6.527,10.955
		c1.3,5.22-1.828,10.306-3.788,13.048c-3.39,4.561-7.175,11.213-9.002,14.474c-0.647,1.174-1.433,1.828-2.865,0.396
		c-2.481-2.481-4.042-6.523-1.306-12.655c2.738-6.262,12.52-17.088,9.391-20.351c-4.435-4.561-36.523,15.394-37.171,31.699
		c-0.393,8.478,16.303,15.388,23.604,20.605c4.961,3.521,4.307,9.523-1.432,16.176c-7.824,8.999-30.518,11.478-48.915-10.692
		c-1.435-1.699-0.912-2.614,0.261-3.002C408.736,270.501,414.083,271.672,417.604,274.54z"/>
	<path style="display:inline;fill:#D4E48D;" d="M477.109,235.155c-1.304-1.828-0.518-2.742,1.436-2.613
		c3.656,0.131,7.303-0.129,10.827-0.521c4.043-7.174,7.695-13.302,9.909-16.175c1.175-1.692,2.481-1.56,3.132,0
		c1.436,3.653,1.436,7.959-1.692,14.741c5.088-0.132,7.042,2.213,8.085,3.912c0.911,1.564,0.393,2.478-1.564,2.478
		c-2.871-0.389-6.913,0-10.174,0.525c-5.088,8.735-12.523,21.387-17.48,32.342c-4.302,9.521-2.87,17.612,2.614,17.869
		c5.864,0.261,13.299-8.998,18.127-18.783c0.778-1.557,2.214-1.824,2.742,0c0.646,2.089,0,4.436-1.308,7.436
		c-1.696,3.788-10.302,15.262-20.739,14.869c-8.606-0.256-15.521-9.906-9.26-24.911c2.735-6.521,8.217-17.477,13.823-27.782
		C481.151,238.541,478.152,236.587,477.109,235.155z"/>
	<path style="display:inline;fill:#D4E48D;" d="M512.472,287.585c10.831,0.521,20.352-9.913,25.958-18.52
		c0.653-1.046,1.692-1.046,2.221,0.129c0.518,1.042,0.125,4.699-2.221,8.084c-5.481,7.962-15.523,13.955-25.565,14.091
		c-16.565,0.257-22.301-16.045-13.826-32.875c8.481-16.82,21.782-23.608,28.304-19.819c3.26,1.95,5.606,3.913,7.695,6.778
		c2.347,3.128,1.307,11.09-4.175,17.74c-6.389,7.824-15.13,11.22-24.258,3.785C502.431,278.979,505.559,287.192,512.472,287.585z
		 M523.303,257.585c4.171-5.475,7.038-12.263,5.214-13.695c-2.742-2.214-13.563,5.607-19.698,18.001
		c-0.386,0.783-0.778,1.567-1.042,2.214C514.168,268.151,519.515,262.544,523.303,257.585z"/>
	<path style="display:inline;fill:#D4E48D;" d="M576.274,238.155c4.307,0.647,8.349,7.042,5.084,13.82
		c-2.735,5.742-9.127,15.398-12.127,22.176c-3.392,7.563-2.61,13.698,2.089,13.434c5.347-0.258,11.737-8.87,16.695-17.998
		c0.649-1.175,1.562-1.175,2.214-0.136c0.914,1.442,0.649,4.442-1.172,8.221c-3.521,7.303-11.734,13.955-19.304,13.955
		c-11.085,0-13.695-8.085-9.914-19.434c4.307-12.784,15.783-26.604,13.435-27.653c-1.3-0.518-8.867,3.135-17.216,12.263
		c-7.695,8.349-13.434,20.869-19.045,33.131c-0.518,1.172-1.303,1.693-2.478,0.522c-2.607-2.607-3.386-6.914-1.307-13.435
		c2.613-8.217,12.654-26.347,20.868-38.481c0.914-1.432,1.961-1.3,2.742,0c1.957,3.264,1.829,7.696,0.394,12.395
		C563.101,244.675,571.975,237.501,576.274,238.155z"/>
	<path style="display:inline;fill:#D4E48D;" d="M625.866,246.111c2.741,5.472-2.479,12.385-5.086,19.434
		c-0.521,1.561-1.048,1.954-2.741,1.043c-3.128-1.571-4.957-5.485-3.128-11.349c1.435-4.696,5.349-10.306,3.521-11.737
		c-2.222-1.826-11.999,6.523-17.87,18.39c-7.178,14.738-4.435,25.564,3.258,25.694c10.956,0.128,20.354-10.306,25.696-18.52
		c0.65-1.046,1.821-1.175,2.351,0.129c0.385,1.042-0.129,4.306-2.351,7.827c-4.956,7.692-15.256,14.084-25.175,14.212
		c-16.556,0.265-22.169-15.909-13.692-32.738c8.35-16.434,21.52-23.476,28.04-19.562
		C622.209,241.019,624.302,243.108,625.866,246.111z"/>
	<path style="display:inline;fill:#D4E48D;" d="M627.321,272.193c3.258-9.52,11.871-24.911,16.692-31.692
		c1.178-1.568,2.092-1.96,3.134-0.785c1.958,2.089,3,7.695-0.128,14.222c-2.742,5.732-8.221,14.606-10.956,21.126
		c-3.136,7.564-2.877,12.648,1.301,12.391c5.87-0.264,13.048-8.87,16.961-17.869c0.644-1.175,1.558-1.043,2.086,0
		c1.042,2.085,0.649,4.828-0.914,8.085c-3.913,8.087-12.135,13.562-19.434,13.562C626.143,291.234,623.666,282.886,627.321,272.193z
		 M656.411,238.155c-1.699,1.821-5.349,1.436-7.306-1.96c-2.086-3.522-1.436-7.435,0.649-9.654c2.086-2.214,5.871-0.648,7.563,2.873
		C659.019,232.799,658.104,236.327,656.411,238.155z"/>
	<path style="display:inline;fill:#D4E48D;" d="M664.901,287.327c6.258,0.521,15.378-8.874,20.478-18.915
		c0.914-1.696,2.335-1.825,2.863,0c0.649,2.089,0.129,4.953-1.307,8.088c-1.821,3.914-11.35,14.733-21.775,14.477
		c-9.006-0.265-13.835-6.521-10.835-20.612c4.827-22.691,19.698-46.3,33.004-60.126c1.956-2.087,3.785-2.348,5.612-0.654
		c3.779,3.393,4.564,8.221,2.994,14.349c-4.036,16.042-18.648,31.698-30.261,39.261
		C660.461,275.979,659.024,286.799,664.901,287.327z M691.507,221.193c-1.699-1.042-11.355,13.434-20.348,30.132
		c-1.178,2.085-2.222,4.171-3.136,6.26C685.886,243.108,693.192,222.239,691.507,221.193z"/>
</g>
<g>
	<g>
		<path style="fill:#AA3B24;" d="M28.816,237.493c-1.215,0.273-2.43,0.549-3.645,0.828c-0.368-0.889-0.736-1.777-1.104-2.667
			c4.75-1.968,9.513-3.896,14.286-5.787c0.354,0.895,0.708,1.789,1.062,2.683c-1.48,0.81-2.959,1.623-4.435,2.44
			c5.084,5.803,10.119,11.637,15.103,17.5c1.195,1.77,2.388,3.541,3.578,5.313c-0.255-2.138-0.507-4.277-0.755-6.417
			c-0.243-6.272-0.448-12.552-0.617-18.838c-0.961-1.083-1.924-2.166-2.889-3.247c-1.274,0.275-2.549,0.552-3.824,0.833
			c-0.348-0.896-0.696-1.793-1.044-2.69c4.945-1.92,9.901-3.798,14.869-5.635c0.333,0.902,0.667,1.805,1.001,2.707
			c-1.575,0.796-3.148,1.596-4.719,2.4c4.908,5.941,9.767,11.911,14.575,17.909c1.291,1.936,2.579,3.874,3.863,5.813
			c-0.337-2.286-0.671-4.572-1.002-6.858c-0.298-7.639-0.543-15.287-0.737-22.944c-1.804,0.421-3.608,0.847-5.412,1.278
			c-0.327-0.905-0.654-1.81-0.981-2.714c4.288-1.551,8.584-3.071,12.888-4.561c0.315,0.91,0.629,1.819,0.944,2.728
			c-1.078,0.593-2.154,1.188-3.229,1.784c-0.009,11.369,0.104,22.717,0.339,34.044c-1.792,0.651-3.583,1.308-5.373,1.97
			c-5.162-6.261-10.381-12.488-15.658-18.681c0.224,8.112,0.51,16.211,0.857,24.299c-1.698,0.661-3.395,1.327-5.089,1.998
			C44.165,254.414,36.547,245.917,28.816,237.493z"/>
		<path style="fill:#AA3B24;" d="M87.315,235.617c-0.652-1.894-0.908-3.734-0.762-5.523c0.146-1.792,0.638-3.454,1.486-4.976
			c0.84-1.529,2.005-2.875,3.493-4.056c1.483-1.175,3.237-2.097,5.249-2.756c3.303-1.083,6.092-1.199,8.351-0.355
			c2.257,0.837,3.869,2.608,4.849,5.3c0.292,0.863,0.52,1.63,0.686,2.296c0.161,0.668,0.252,1.269,0.272,1.802
			c-5.897,1.863-11.782,3.784-17.651,5.763c0.617,1.672,1.378,3.034,2.263,4.09c0.887,1.051,1.848,1.841,2.875,2.365
			c1.025,0.521,2.108,0.802,3.244,0.836c1.137,0.03,2.278-0.138,3.418-0.511c0.721-0.236,1.436-0.53,2.136-0.89
			c0.7-0.356,1.36-0.746,1.98-1.165c0.615-0.422,1.175-0.852,1.678-1.279c0.503-0.432,0.908-0.842,1.208-1.234
			c0.581,0.603,1.162,1.206,1.741,1.809c-0.335,0.583-0.816,1.2-1.443,1.848c-0.62,0.653-1.34,1.278-2.155,1.888
			c-0.814,0.606-1.708,1.173-2.687,1.699c-0.973,0.532-1.986,0.971-3.042,1.317c-2.156,0.709-4.143,1.03-5.961,0.955
			c-1.825-0.075-3.462-0.484-4.914-1.241c-1.45-0.75-2.708-1.807-3.768-3.166C88.807,239.07,87.952,237.465,87.315,235.617z
			 M104.285,226.618c-0.047-0.265-0.111-0.553-0.191-0.862c-0.079-0.303-0.16-0.574-0.239-0.82c-0.238-0.738-0.564-1.4-0.978-1.991
			c-0.416-0.579-0.923-1.051-1.519-1.398c-0.598-0.347-1.292-0.548-2.088-0.601c-0.797-0.052-1.708,0.089-2.739,0.428
			c-0.871,0.287-1.643,0.673-2.328,1.144c-0.678,0.476-1.215,1.077-1.609,1.812c-0.387,0.73-0.612,1.602-0.658,2.618
			c-0.049,1.015,0.113,2.208,0.484,3.587C96.368,229.202,100.323,227.897,104.285,226.618z"/>
		<path style="fill:#AA3B24;" d="M111.145,205.028c-1.482,0.294-2.965,0.593-4.448,0.895c-0.22-0.703-0.44-1.406-0.66-2.109
			c2.841-1.241,5.688-2.468,8.541-3.683c0.044-0.013,0.088-0.027,0.132-0.04c0.514,0.123,1.028,0.245,1.541,0.368
			c1.377,4.572,2.754,9.145,4.131,13.718c0.323-0.506,0.715-1.021,1.189-1.553c0.47-0.539,1.01-1.049,1.628-1.541
			c0.613-0.495,1.308-0.948,2.079-1.359c0.773-0.417,1.637-0.767,2.589-1.044c1.51-0.44,3.031-0.63,4.556-0.577
			c1.525,0.053,2.964,0.414,4.309,1.081c1.348,0.666,2.557,1.677,3.619,3.029c1.065,1.343,1.893,3.093,2.49,5.243
			c0.528,1.899,0.672,3.776,0.435,5.627c-0.235,1.851-0.831,3.574-1.784,5.171c-0.945,1.599-2.247,3.014-3.892,4.261
			c-1.644,1.246-3.623,2.205-5.951,2.894c-1.311,0.388-2.574,0.697-3.778,0.921c-1.213,0.221-2.294,0.38-3.25,0.468
			c-0.958,0.088-1.761,0.122-2.415,0.096c-0.648-0.021-1.08-0.077-1.298-0.176C117.654,226.154,114.399,215.591,111.145,205.028z
			 M125.987,232.791c0.189,0.194,0.46,0.322,0.816,0.404c0.352,0.074,0.763,0.107,1.229,0.096c0.466-0.006,0.98-0.064,1.54-0.167
			c0.554-0.11,1.118-0.243,1.691-0.412c1.2-0.355,2.25-0.887,3.139-1.601c0.893-0.716,1.592-1.606,2.097-2.669
			c0.5-1.068,0.775-2.303,0.835-3.718c0.055-1.41-0.144-2.989-0.603-4.728c-0.446-1.617-1.023-2.961-1.74-4.025
			c-0.709-1.066-1.514-1.878-2.42-2.447c-0.901-0.57-1.862-0.901-2.895-0.998c-1.027-0.087-2.084,0.022-3.173,0.342
			c-0.691,0.204-1.321,0.473-1.892,0.803c-0.566,0.327-1.067,0.688-1.509,1.078c-0.433,0.389-0.811,0.778-1.127,1.175
			c-0.308,0.388-0.555,0.75-0.742,1.084C122.818,222.269,124.403,227.53,125.987,232.791z"/>
		<path style="fill:#AA3B24;" d="M166.179,223.005c1.396-0.543,2.792-1.084,4.19-1.621c-2.332-9.349-4.663-18.698-6.995-28.047
			c-1.439,0.154-2.878,0.312-4.317,0.473c-0.235-0.924-0.469-1.848-0.704-2.771c2.354-0.598,4.708-1.187,7.065-1.767
			c0.809-0.199,1.611-0.396,2.397-0.587c0.788-0.192,1.568-0.381,2.344-0.568c0.778-0.188,1.559-0.375,2.342-0.561
			c0.792-0.189,1.608-0.382,2.456-0.582c3.48-0.82,6.581-1.134,9.284-0.942c2.699,0.191,5.024,0.82,6.962,1.878
			c1.949,1.06,3.516,2.517,4.727,4.362c1.2,1.839,2.066,4.014,2.599,6.509c0.598,2.796,0.649,5.443,0.167,7.948
			c-0.484,2.502-1.428,4.76-2.833,6.777c-1.404,2.008-3.224,3.726-5.47,5.152c-2.245,1.425-4.848,2.485-7.811,3.185
			c-0.647,0.153-1.325,0.314-2.029,0.482c-0.711,0.17-1.425,0.341-2.148,0.515c-0.725,0.175-1.444,0.349-2.158,0.523
			c-0.713,0.174-1.397,0.341-2.042,0.5c-2.449,0.603-4.896,1.214-7.341,1.836C166.636,224.801,166.407,223.903,166.179,223.005z
			 M176.411,220.134c1.037,0.025,2.04-0.077,3.014-0.31c0.971-0.232,2.016-0.48,3.125-0.742c1.866-0.439,3.504-1.16,4.934-2.158
			c1.43-1.004,2.572-2.25,3.438-3.75c0.864-1.499,1.408-3.246,1.641-5.241c0.224-1.992,0.066-4.227-0.48-6.699
			c-1.065-4.821-3.069-8.226-6.044-10.188c-2.973-1.963-6.947-2.377-11.886-1.207c-1.163,0.276-2.122,0.56-2.885,0.849
			c-0.76,0.288-1.37,0.511-1.837,0.661C171.757,200.944,174.084,210.539,176.411,220.134z"/>
		<path style="fill:#AA3B24;" d="M203.807,203.497c-0.41-1.961-0.437-3.818-0.075-5.573c0.365-1.759,1.051-3.344,2.072-4.745
			c1.019-1.411,2.333-2.598,3.943-3.579c1.606-0.978,3.447-1.669,5.509-2.068c3.385-0.656,6.143-0.416,8.262,0.707
			c2.122,1.116,3.49,3.076,4.128,5.869c0.18,0.893,0.313,1.683,0.388,2.365c0.082,0.682,0.101,1.289,0.05,1.821
			c-6.039,1.101-12.07,2.26-18.092,3.478c0.407,1.735,0.987,3.183,1.733,4.341c0.744,1.155,1.59,2.061,2.533,2.711
			c0.946,0.646,1.976,1.063,3.092,1.24c1.118,0.174,2.26,0.152,3.436-0.074c0.738-0.142,1.473-0.342,2.208-0.611
			c0.736-0.266,1.434-0.568,2.09-0.904c0.661-0.342,1.265-0.696,1.812-1.057c0.55-0.365,0.998-0.72,1.347-1.072
			c0.498,0.671,0.994,1.343,1.49,2.015c-0.4,0.534-0.949,1.086-1.645,1.648c-0.698,0.571-1.486,1.1-2.361,1.601
			c-0.872,0.498-1.829,0.947-2.849,1.344c-1.028,0.405-2.082,0.712-3.163,0.922c-2.212,0.43-4.21,0.497-5.99,0.191
			c-1.781-0.307-3.341-0.921-4.68-1.855c-1.338-0.928-2.447-2.135-3.321-3.617C204.845,207.111,204.207,205.41,203.807,203.497z
			 M221.626,196.725c-0.018-0.268-0.045-0.562-0.09-0.878c-0.04-0.311-0.083-0.59-0.131-0.844c-0.144-0.762-0.38-1.461-0.725-2.097
			c-0.335-0.628-0.773-1.161-1.318-1.581c-0.547-0.419-1.206-0.708-1.981-0.86c-0.777-0.152-1.694-0.128-2.75,0.078
			c-0.892,0.174-1.707,0.46-2.436,0.84c-0.729,0.386-1.33,0.914-1.803,1.591c-0.48,0.677-0.798,1.511-0.972,2.513
			c-0.173,1-0.16,2.204,0.032,3.619C213.506,198.286,217.564,197.492,221.626,196.725z"/>
		<path style="fill:#AA3B24;" d="M234.649,203.079c1.221-0.215,2.442-0.428,3.664-0.638c0.54,1.054,1.078,2.109,1.615,3.164
			c0.195,0.198,0.499,0.37,0.916,0.528c0.417,0.151,0.904,0.276,1.447,0.361c0.547,0.09,1.146,0.134,1.795,0.13
			c0.644,0,1.3-0.058,1.953-0.166c1.039-0.171,1.891-0.402,2.56-0.688c0.673-0.292,1.192-0.629,1.555-1.012
			c0.366-0.384,0.596-0.803,0.702-1.26c0.104-0.456,0.114-0.939,0.034-1.441c-0.093-0.586-0.34-1.09-0.746-1.506
			c-0.402-0.415-0.967-0.774-1.698-1.087c-0.727-0.32-1.614-0.6-2.665-0.845c-1.051-0.24-2.274-0.477-3.67-0.7
			c-1.416-0.22-2.671-0.499-3.76-0.842c-1.093-0.344-2.027-0.782-2.804-1.319c-0.776-0.529-1.399-1.165-1.86-1.903
			c-0.461-0.739-0.79-1.618-0.969-2.636c-0.179-1.015-0.061-1.979,0.35-2.896c0.411-0.914,1.059-1.753,1.943-2.514
			c0.89-0.758,1.984-1.415,3.283-1.961c1.295-0.544,2.742-0.952,4.336-1.213c1.153-0.189,2.219-0.294,3.189-0.321
			c0.977-0.033,1.854-0.025,2.618,0.024c0.771,0.041,1.444,0.105,2.018,0.183c0.579,0.078,1.043,0.128,1.413,0.151
			c0.291,1.878,0.581,3.755,0.871,5.633c-1.126,0.174-2.253,0.351-3.379,0.529c-0.541-0.971-1.082-1.941-1.625-2.911
			c-0.136-0.16-0.357-0.303-0.666-0.427c-0.311-0.122-0.684-0.218-1.119-0.284c-0.438-0.061-0.925-0.098-1.455-0.097
			c-0.537,0.007-1.085,0.06-1.652,0.154c-0.865,0.142-1.608,0.343-2.232,0.606c-0.631,0.262-1.141,0.565-1.535,0.913
			c-0.396,0.35-0.67,0.738-0.826,1.165c-0.151,0.426-0.19,0.87-0.112,1.33c0.125,0.731,0.428,1.318,0.904,1.743
			c0.48,0.428,1.078,0.775,1.787,1.038c0.712,0.27,1.508,0.483,2.389,0.641c0.883,0.158,1.796,0.324,2.74,0.503
			c1.24,0.236,2.459,0.503,3.643,0.804c1.18,0.293,2.249,0.686,3.195,1.174c0.94,0.487,1.734,1.105,2.376,1.844
			c0.639,0.743,1.047,1.69,1.224,2.847c0.169,1.106,0.062,2.155-0.316,3.153c-0.381,0.997-1.008,1.896-1.882,2.708
			c-0.871,0.806-1.981,1.502-3.332,2.081c-1.348,0.578-2.914,1.013-4.706,1.308c-0.981,0.162-1.989,0.262-3.031,0.294
			c-1.036,0.027-2.031,0.022-2.977-0.028c-0.951-0.055-1.811-0.125-2.593-0.221c-0.776-0.094-1.409-0.192-1.888-0.301
			C235.33,206.938,234.989,205.009,234.649,203.079z"/>
		<path style="fill:#AA3B24;" d="M261.523,204.107c1.381-0.338,2.763-0.674,4.146-1.006c-0.929-6.483-1.859-12.967-2.788-19.45
			c-1.327-0.134-2.655-0.266-3.984-0.394c-0.134-0.913-0.269-1.826-0.404-2.739c2.773-0.731,5.551-1.451,8.333-2.158
			c0.044-0.006,0.088-0.012,0.133-0.018c0.496,0.238,0.991,0.478,1.485,0.717c1.06,7.736,2.119,15.473,3.178,23.209
			c1.403-0.058,2.806-0.113,4.208-0.165c0.112,0.845,0.224,1.689,0.336,2.534c-4.76,0.63-9.516,1.297-14.269,2
			C261.772,205.793,261.647,204.95,261.523,204.107z M262.302,173.96c-0.46-0.1-0.864-0.27-1.209-0.514
			c-0.345-0.24-0.635-0.543-0.857-0.905c-0.227-0.362-0.373-0.768-0.438-1.216c-0.072-0.495-0.054-0.982,0.052-1.457
			c0.104-0.469,0.305-0.903,0.594-1.301c0.293-0.399,0.676-0.737,1.146-1.02c0.474-0.28,1.045-0.468,1.708-0.562
			c0.009-0.001,0.019-0.002,0.028-0.004c0.596-0.083,1.132-0.065,1.614,0.049c0.485,0.118,0.904,0.304,1.258,0.558
			c0.359,0.258,0.645,0.572,0.859,0.938c0.213,0.367,0.343,0.757,0.4,1.174c0.07,0.515,0.056,1.006-0.052,1.488
			c-0.104,0.479-0.317,0.909-0.62,1.29c-0.299,0.383-0.701,0.706-1.201,0.972c-0.499,0.268-1.097,0.452-1.79,0.549
			c-0.009,0.001-0.019,0.003-0.028,0.004C263.247,174.077,262.76,174.064,262.302,173.96z"/>
		<path style="fill:#AA3B24;" d="M280.705,209.606c-0.097-0.76-0.053-1.5,0.135-2.216c0.19-0.718,0.471-1.388,0.851-2.01
			c0.373-0.626,0.827-1.183,1.349-1.686c0.53-0.495,1.078-0.926,1.653-1.276c-0.862-0.305-1.553-0.748-2.064-1.329
			c-0.514-0.581-0.834-1.336-0.952-2.269c-0.075-0.6-0.048-1.197,0.086-1.77c0.131-0.576,0.351-1.127,0.657-1.645
			c0.308-0.521,0.687-1.006,1.132-1.465c0.452-0.452,0.957-0.866,1.516-1.235c-1.833-0.466-3.293-1.252-4.387-2.369
			c-1.093-1.11-1.75-2.516-1.966-4.215c-0.172-1.355,0.031-2.611,0.611-3.764c0.582-1.153,1.419-2.163,2.503-3.041
			c1.095-0.88,2.374-1.602,3.849-2.173c1.473-0.571,3.021-0.953,4.642-1.138c0.007,0,0.014-0.001,0.021-0.002
			c1.91-0.218,3.646-0.218,5.219-0.013c1.571,0.209,2.93,0.639,4.076,1.288c0.157-0.201,0.404-0.448,0.742-0.744
			c0.336-0.298,0.751-0.592,1.243-0.88c0.495-0.285,1.074-0.553,1.727-0.79c0.66-0.235,1.403-0.393,2.224-0.474
			c0.482-0.047,0.963-0.094,1.445-0.141c0.145,1.495,0.289,2.989,0.433,4.484c-1.864,0.18-3.727,0.365-5.59,0.555
			c0.353,0.479,0.643,1,0.858,1.561c0.219,0.563,0.362,1.182,0.432,1.869c0.136,1.345-0.061,2.599-0.58,3.767
			c-0.522,1.164-1.303,2.202-2.341,3.111c-1.039,0.904-2.292,1.654-3.761,2.25c-1.466,0.596-3.079,0.994-4.841,1.195
			c-0.01,0.001-0.021,0.002-0.031,0.003c-1.436,0.165-2.784,0.187-4.06,0.074c-0.421,0.423-0.752,0.911-0.981,1.453
			c-0.227,0.535-0.303,1.078-0.238,1.619c0.071,0.588,0.24,1.056,0.524,1.405c0.28,0.344,0.673,0.59,1.175,0.74
			c0.497,0.156,1.125,0.229,1.877,0.216c0.749-0.008,1.623-0.065,2.631-0.181c1.894-0.216,3.789-0.427,5.684-0.632
			c3.499-0.378,6.135-0.05,7.905,0.966c1.77,1.014,2.759,2.681,2.983,4.984c0.089,0.917-0.013,1.82-0.307,2.717
			c-0.295,0.891-0.753,1.737-1.367,2.54c-0.616,0.799-1.368,1.549-2.254,2.253c-0.891,0.701-1.883,1.332-2.975,1.887
			c-1.091,0.554-2.265,1.023-3.535,1.393c-1.263,0.379-2.576,0.638-3.942,0.793c-0.008,0.001-0.017,0.002-0.026,0.003
			c-2.389,0.272-4.432,0.343-6.132,0.191c-1.696-0.149-3.106-0.475-4.228-0.968c-1.121-0.5-1.973-1.162-2.545-1.994
			C281.205,211.671,280.846,210.706,280.705,209.606z M286.312,207.509c0.11,0.899,0.347,1.682,0.704,2.348
			c0.366,0.663,0.877,1.203,1.557,1.618c0.675,0.414,1.523,0.695,2.55,0.832c1.021,0.138,2.251,0.125,3.694-0.039
			c0.016-0.002,0.032-0.003,0.049-0.005c1.114-0.126,2.202-0.37,3.272-0.734c1.073-0.359,2.017-0.819,2.833-1.389
			c0.815-0.565,1.454-1.225,1.915-1.981c0.455-0.754,0.64-1.598,0.543-2.532c-0.073-0.703-0.219-1.305-0.432-1.806
			c-0.222-0.507-0.576-0.902-1.07-1.194c-0.496-0.298-1.161-0.487-2.005-0.568c-0.842-0.084-1.913-0.057-3.206,0.085
			c-1.74,0.192-3.48,0.389-5.219,0.59c-0.762,0.088-1.479,0.149-2.153,0.171c-0.675,0.026-1.307,0.024-1.908,0.001
			c-0.39,0.551-0.704,1.207-0.944,1.961C286.246,205.621,286.188,206.495,286.312,207.509z M291.884,190.202
			c1.034-0.118,1.896-0.34,2.585-0.686c0.688-0.34,1.235-0.786,1.638-1.336c0.402-0.551,0.669-1.196,0.806-1.938
			c0.131-0.74,0.149-1.57,0.051-2.483c-0.212-1.972-0.866-3.357-1.954-4.146c-1.092-0.793-2.66-1.077-4.702-0.844
			c-0.008,0-0.017,0.001-0.025,0.002c-0.906,0.104-1.713,0.293-2.429,0.572c-0.715,0.272-1.309,0.653-1.793,1.133
			c-0.482,0.485-0.825,1.091-1.033,1.823c-0.21,0.733-0.252,1.603-0.13,2.617c0.102,0.844,0.307,1.614,0.615,2.319
			c0.308,0.707,0.738,1.3,1.281,1.785c0.55,0.489,1.245,0.84,2.073,1.06c0.837,0.215,1.832,0.256,2.991,0.124
			C291.866,190.205,291.875,190.203,291.884,190.202z"/>
		<path style="fill:#AA3B24;" d="M312.571,198.046c1.125-0.235,2.252-0.468,3.379-0.698c-0.565-6.32-1.13-12.64-1.695-18.959
			c-1.294-0.188-2.59-0.375-3.887-0.558c-0.092-0.983-0.184-1.966-0.275-2.949c2.605-0.559,5.214-1.107,7.827-1.645
			c0.045-0.004,0.09-0.008,0.136-0.011c0.444,0.269,0.887,0.538,1.33,0.807c0.055,0.662,0.111,1.323,0.166,1.985
			c0.024,0.376,0.048,0.753,0.072,1.13c0.545-0.535,1.221-1.072,2.045-1.621c0.809-0.549,1.696-1.048,2.656-1.506
			c0.955-0.458,1.958-0.843,3.005-1.158c1.042-0.317,2.063-0.512,3.063-0.584c1.75-0.126,3.203-0.014,4.367,0.318
			c1.162,0.337,2.099,0.925,2.815,1.757c0.717,0.838,1.248,1.931,1.591,3.284c0.342,1.352,0.574,2.977,0.694,4.872
			c0.272,4.317,0.545,8.635,0.818,12.952c1.263,0.05,2.526,0.103,3.789,0.158c0.049,0.823,0.097,1.646,0.146,2.469
			c-4.361,0.258-8.72,0.546-13.078,0.865c-0.06-0.822-0.12-1.645-0.18-2.467c1.105-0.211,2.21-0.419,3.316-0.626
			c-0.299-4.308-0.599-8.615-0.899-12.923c-0.085-1.229-0.229-2.297-0.424-3.194c-0.196-0.895-0.505-1.633-0.931-2.196
			c-0.417-0.566-0.997-0.968-1.718-1.207c-0.721-0.241-1.652-0.318-2.788-0.232c-0.676,0.051-1.359,0.176-2.055,0.376
			c-0.691,0.202-1.357,0.444-2.006,0.741c-0.645,0.289-1.254,0.617-1.837,0.969c-0.579,0.352-1.089,0.71-1.542,1.074
			c0.486,5.855,0.973,11.71,1.459,17.565c1.21,0.029,2.421,0.061,3.63,0.095c0.065,0.822,0.13,1.644,0.196,2.466
			c-4.32,0.342-8.639,0.714-12.956,1.116C312.724,199.688,312.647,198.867,312.571,198.046z"/>
		<path style="fill:#AA3B24;" d="M364.811,188.007c-0.041-1.091,0.154-2.091,0.586-3.002c0.434-0.91,1.012-1.739,1.738-2.486
			c0.725-0.754,1.553-1.432,2.48-2.046c0.926-0.612,1.859-1.178,2.799-1.685c-0.618-0.642-1.22-1.335-1.801-2.074
			c-0.587-0.739-1.1-1.517-1.555-2.327c-0.453-0.81-0.827-1.643-1.114-2.49c-0.287-0.85-0.444-1.694-0.474-2.553
			c-0.037-1.095,0.202-2.138,0.725-3.133c0.524-0.994,1.265-1.877,2.225-2.639c0.96-0.767,2.105-1.383,3.451-1.848
			c1.339-0.465,2.803-0.72,4.392-0.756c1.697-0.039,3.172,0.13,4.423,0.484c1.252,0.361,2.287,0.837,3.108,1.437
			c0.816,0.592,1.425,1.271,1.824,2.029c0.396,0.759,0.597,1.514,0.606,2.26c0.018,1.367-0.212,2.556-0.679,3.569
			c-0.471,1.009-1.111,1.92-1.928,2.735c-0.815,0.812-1.764,1.571-2.844,2.274c-1.081,0.702-2.229,1.41-3.436,2.125
			c0.655,0.674,1.421,1.443,2.299,2.324c0.874,0.87,1.772,1.759,2.697,2.658c0.925,0.895,1.827,1.762,2.712,2.595
			c0.885,0.831,1.659,1.533,2.336,2.104c0.397,0.338,0.794,0.678,1.191,1.017c0.521-0.66,0.943-1.362,1.269-2.097
			c0.328-0.739,0.576-1.484,0.748-2.231c0.169-0.757,0.27-1.508,0.298-2.256c0.034-0.755,0.007-1.462-0.071-2.136
			c-1.426-0.183-2.853-0.362-4.281-0.539c-0.012-0.962-0.024-1.924-0.036-2.886c4.343-0.055,8.686-0.08,13.029-0.076
			c-0.001,0.962-0.002,1.924-0.003,2.887c-1.426,0.193-2.851,0.389-4.274,0.588c0.023,1.126-0.074,2.212-0.292,3.261
			c-0.22,1.051-0.515,2.036-0.902,2.957c-0.379,0.93-0.833,1.776-1.365,2.552c-0.529,0.777-1.09,1.467-1.678,2.065
			c1.004,0.821,2.018,1.493,3.05,2.008c1.029,0.524,2.24,0.835,3.617,0.942c0,0.75,0.001,1.5,0.002,2.25
			c-0.19,0.094-0.456,0.182-0.81,0.256c-0.353,0.079-0.716,0.146-1.105,0.192c-0.394,0.05-0.769,0.084-1.138,0.111
			c-0.365,0.024-0.659,0.037-0.882,0.038c-0.664,0.003-1.273-0.04-1.833-0.139c-0.554-0.101-1.1-0.251-1.633-0.456
			c-0.534-0.208-1.07-0.465-1.613-0.78c-0.539-0.319-1.131-0.697-1.765-1.145c-0.726,0.509-1.507,0.938-2.336,1.277
			c-0.827,0.345-1.669,0.627-2.507,0.837c-0.839,0.208-1.659,0.364-2.459,0.463c-0.794,0.098-1.535,0.153-2.214,0.168
			c-2.154,0.049-4.119-0.095-5.888-0.443c-1.768-0.345-3.284-0.877-4.543-1.612c-1.261-0.725-2.257-1.644-2.982-2.752
			C365.257,190.778,364.866,189.48,364.811,188.007z M370.531,187.222c0.028,0.907,0.239,1.774,0.635,2.594
			c0.39,0.826,0.975,1.544,1.748,2.154c0.765,0.609,1.715,1.091,2.842,1.432c1.127,0.35,2.443,0.503,3.962,0.47
			c0.527-0.012,1.073-0.053,1.648-0.127c0.574-0.074,1.152-0.19,1.734-0.337c0.582-0.151,1.15-0.34,1.702-0.559
			c0.555-0.221,1.078-0.487,1.561-0.813c-0.898-0.733-1.883-1.582-2.94-2.54c-1.062-0.957-2.128-1.951-3.194-2.974
			c-1.068-1.028-2.106-2.038-3.121-3.047c-1.012-1.008-1.94-1.931-2.775-2.768c-0.552,0.438-1.068,0.891-1.54,1.369
			c-0.475,0.475-0.879,0.977-1.224,1.513c-0.345,0.536-0.613,1.103-0.795,1.705C370.586,185.889,370.509,186.532,370.531,187.222z
			 M377.561,176.775c0.992-0.744,1.833-1.449,2.525-2.124c0.687-0.669,1.244-1.352,1.667-2.049c0.424-0.694,0.733-1.433,0.922-2.221
			c0.192-0.79,0.277-1.66,0.26-2.634c-0.008-0.408-0.066-0.868-0.185-1.391c-0.12-0.522-0.341-1.009-0.676-1.463
			c-0.332-0.458-0.807-0.842-1.425-1.147c-0.617-0.308-1.429-0.45-2.441-0.426c-0.7,0.016-1.362,0.16-1.971,0.446
			c-0.617,0.281-1.144,0.667-1.58,1.166c-0.438,0.496-0.773,1.077-1.015,1.741c-0.242,0.664-0.353,1.388-0.331,2.166
			c0.026,0.907,0.181,1.752,0.461,2.534c0.281,0.783,0.629,1.501,1.049,2.155c0.417,0.651,0.869,1.25,1.354,1.792
			C376.658,175.861,377.123,176.346,377.561,176.775z"/>
		<path style="fill:#AA3B24;" d="M421.058,193.869c1.479-0.151,2.959-0.299,4.439-0.443c0.251-9.632,0.502-19.264,0.754-28.896
			c-1.416-0.236-2.832-0.468-4.25-0.697c0.021-0.953,0.042-1.906,0.062-2.859c2.409,0.052,4.819,0.113,7.229,0.184
			c0.824,0.024,1.644,0.049,2.448,0.074c0.803,0.025,1.6,0.052,2.396,0.079c0.789,0.027,1.59,0.055,2.395,0.084
			c0.804,0.029,1.636,0.061,2.497,0.094c3.556,0.139,6.611,0.664,9.144,1.569c2.541,0.905,4.595,2.13,6.18,3.668
			c1.581,1.542,2.706,3.363,3.363,5.464c0.666,2.092,0.919,4.42,0.767,6.966c-0.171,2.854-0.82,5.419-1.961,7.705
			c-1.128,2.283-2.634,4.207-4.514,5.776c-1.879,1.562-4.085,2.73-6.608,3.506c-2.533,0.775-5.311,1.101-8.333,0.985
			c-0.662-0.025-1.352-0.051-2.07-0.077c-0.721-0.026-1.453-0.052-2.194-0.077c-0.739-0.025-1.472-0.049-2.194-0.072
			c-0.733-0.023-1.432-0.044-2.094-0.064c-2.505-0.073-5.01-0.137-7.515-0.19C421.019,195.722,421.038,194.795,421.058,193.869z
			 M431.615,193.834c0.99,0.301,1.973,0.471,2.969,0.506c0.992,0.035,2.058,0.075,3.186,0.119c1.903,0.074,3.666-0.183,5.299-0.763
			c1.638-0.587,3.066-1.483,4.292-2.697c1.23-1.213,2.204-2.753,2.957-4.613c0.754-1.859,1.203-4.055,1.337-6.583
			c0.262-4.931-0.765-8.747-3.092-11.432c-2.328-2.685-6.023-4.144-11.061-4.333c-1.19-0.045-2.187-0.028-2.987,0.048
			c-0.807,0.075-1.454,0.126-1.937,0.146C432.258,174.099,431.937,183.967,431.615,193.834z"/>
		<path style="fill:#AA3B24;" d="M462.288,185.109c0.128-1.999,0.596-3.796,1.413-5.391c0.814-1.598,1.896-2.943,3.248-4.021
			c1.35-1.088,2.927-1.882,4.733-2.398c1.807-0.514,3.749-0.69,5.845-0.524c3.42,0.271,6.007,1.237,7.749,2.884
			c1.73,1.641,2.532,3.895,2.393,6.756c-0.056,0.909-0.142,1.706-0.25,2.384c-0.107,0.679-0.246,1.269-0.437,1.768
			c-6.097-0.549-12.198-1.04-18.302-1.472c-0.073,1.781,0.095,3.33,0.509,4.646c0.404,1.311,0.977,2.41,1.712,3.289
			c0.737,0.875,1.614,1.552,2.641,2.02c1.023,0.465,2.124,0.749,3.312,0.844c0.742,0.06,1.504,0.062,2.284,0
			c0.778-0.06,1.524-0.166,2.252-0.314c0.721-0.154,1.394-0.334,2.026-0.535c0.617-0.206,1.146-0.428,1.568-0.675
			c0.301,0.78,0.6,1.56,0.897,2.34c-0.525,0.409-1.201,0.794-2.023,1.15c-0.821,0.364-1.714,0.664-2.688,0.914
			c-0.974,0.247-2.011,0.425-3.103,0.535c-1.091,0.117-2.181,0.132-3.272,0.046c-2.237-0.175-4.174-0.644-5.805-1.413
			c-1.629-0.771-2.96-1.778-3.998-3.036c-1.034-1.251-1.777-2.71-2.218-4.372C462.32,188.87,462.162,187.06,462.288,185.109z
			 M481.188,183.333c0.06-0.263,0.11-0.553,0.152-0.87c0.045-0.31,0.078-0.591,0.1-0.849c0.064-0.773,0.019-1.51-0.134-2.214
			c-0.153-0.694-0.438-1.325-0.853-1.875c-0.407-0.55-0.964-1.003-1.668-1.357c-0.709-0.354-1.593-0.575-2.663-0.659
			c-0.907-0.07-1.765-0.012-2.561,0.16c-0.8,0.178-1.521,0.526-2.155,1.053c-0.634,0.525-1.17,1.243-1.598,2.163
			c-0.435,0.917-0.743,2.081-0.936,3.496C472.979,182.673,477.084,182.99,481.188,183.333z"/>
		<path style="fill:#AA3B24;" d="M492.762,177.232c-0.814-0.279-1.629-0.557-2.444-0.833c0.077-0.827,0.153-1.654,0.229-2.481
			c4.456,0.413,8.91,0.855,13.361,1.329c-0.088,0.826-0.177,1.652-0.265,2.478c-1.353,0.057-2.706,0.118-4.058,0.181
			c1.298,4.503,2.571,9.009,3.822,13.517c0.547,2.141,1.09,4.281,1.627,6.422c0.862-1.91,1.729-3.819,2.599-5.727
			c2.146-4.211,4.314-8.416,6.506-12.613c-1.2-0.343-2.4-0.683-3.603-1.021c0.094-0.825,0.188-1.65,0.281-2.476
			c3.764,0.428,7.526,0.877,11.286,1.349c-0.104,0.824-0.207,1.648-0.311,2.472c-0.948,0.09-1.896,0.182-2.844,0.275
			c-4.375,7.372-8.669,14.771-12.881,22.198c-1.627-0.182-3.255-0.359-4.883-0.533C498.469,193.579,495.66,185.399,492.762,177.232z
			"/>
		<path style="fill:#AA3B24;" d="M522.417,190.868c0.254-1.987,0.831-3.751,1.75-5.291c0.914-1.543,2.075-2.818,3.494-3.809
			c1.422-1,3.051-1.693,4.889-2.095c1.831-0.4,3.789-0.452,5.864-0.156c3.406,0.486,5.933,1.614,7.569,3.367
			c1.636,1.748,2.292,4.047,1.976,6.895c-0.12,0.903-0.252,1.693-0.408,2.362c-0.144,0.671-0.325,1.251-0.541,1.738
			c-6.062-0.933-12.129-1.807-18.203-2.623c-0.187,1.773-0.115,3.33,0.212,4.668c0.329,1.335,0.829,2.467,1.508,3.391
			c0.679,0.919,1.516,1.65,2.513,2.183c0.991,0.528,2.078,0.881,3.255,1.05c0.746,0.107,1.512,0.159,2.293,0.145
			c0.773-0.012,1.531-0.069,2.261-0.173c0.736-0.106,1.423-0.245,2.063-0.405c0.631-0.166,1.17-0.355,1.617-0.574
			c0.249,0.797,0.497,1.594,0.743,2.391c-0.553,0.375-1.25,0.717-2.092,1.021c-0.84,0.312-1.761,0.554-2.751,0.742
			c-0.985,0.185-2.026,0.299-3.125,0.34c-1.099,0.047-2.2-0.008-3.285-0.162c-2.226-0.315-4.13-0.906-5.709-1.775
			c-1.579-0.872-2.848-1.961-3.803-3.282c-0.96-1.314-1.606-2.816-1.946-4.503C522.216,194.624,522.17,192.807,522.417,190.868z
			 M541.424,190.287c0.065-0.26,0.143-0.546,0.205-0.858c0.057-0.308,0.111-0.586,0.148-0.842c0.113-0.768,0.119-1.505,0.002-2.219
			c-0.113-0.703-0.352-1.35-0.728-1.924c-0.382-0.576-0.906-1.062-1.589-1.46c-0.685-0.398-1.553-0.674-2.619-0.825
			c-0.899-0.127-1.758-0.123-2.569-0.002c-0.812,0.127-1.552,0.43-2.222,0.915c-0.671,0.483-1.24,1.168-1.735,2.058
			c-0.494,0.888-0.869,2.03-1.148,3.431C533.257,189.11,537.342,189.686,541.424,190.287z"/>
		<path style="fill:#AA3B24;" d="M549.607,205.604c1.421,0.091,2.842,0.185,4.263,0.282c1.756-10.762,3.512-21.523,5.267-32.285
			c-1.44-0.393-2.884-0.783-4.327-1.169c0.116-0.733,0.232-1.467,0.349-2.2c3.111,0.152,6.225,0.319,9.339,0.501
			c0.017,0.003,0.034,0.006,0.052,0.009c0.395,0.336,0.788,0.673,1.181,1.01c-1.985,11.706-3.971,23.411-5.956,35.117
			c1.447,0.38,2.893,0.763,4.337,1.15c-0.146,0.839-0.293,1.679-0.439,2.518c-4.816-0.84-9.638-1.643-14.464-2.408
			C549.341,207.287,549.475,206.446,549.607,205.604z"/>
		<path style="fill:#AA3B24;" d="M569.46,198.012c0.375-2.105,1.119-3.901,2.229-5.388c1.102-1.491,2.433-2.667,3.967-3.536
			c1.546-0.863,3.23-1.424,5.056-1.684c1.834-0.252,3.647-0.212,5.444,0.137c2.385,0.462,4.37,1.204,5.955,2.226
			c1.593,1.023,2.814,2.234,3.685,3.63c0.861,1.402,1.396,2.954,1.593,4.66c0.206,1.703,0.109,3.481-0.275,5.323
			c-0.443,2.124-1.231,3.909-2.365,5.373c-1.129,1.462-2.461,2.608-3.988,3.451c-1.539,0.839-3.195,1.372-4.988,1.604
			c-1.797,0.229-3.57,0.173-5.34-0.168c-2.313-0.447-4.247-1.16-5.791-2.146c-1.554-0.987-2.767-2.171-3.638-3.546
			c-0.867-1.369-1.433-2.907-1.668-4.602C569.087,201.641,569.129,199.867,569.46,198.012z M581.32,210.852
			c4.76,0.922,7.797-1.87,9.124-8.43c0.307-1.522,0.456-2.959,0.458-4.307c0-1.345-0.189-2.556-0.581-3.629
			c-0.39-1.07-0.987-1.966-1.805-2.685c-0.818-0.716-1.894-1.21-3.229-1.468c-2.413-0.466-4.395,0.017-5.937,1.424
			c-1.551,1.407-2.617,3.764-3.229,7.059c-0.283,1.528-0.411,2.966-0.39,4.327c0.023,1.355,0.238,2.56,0.629,3.62
			c0.396,1.059,0.99,1.939,1.802,2.651C578.984,210.127,580.028,210.602,581.32,210.852z"/>
		<path style="fill:#AA3B24;" d="M600.143,226.299c2.144-9.873,4.287-19.746,6.431-29.619c-1.188-0.558-2.378-1.113-3.569-1.666
			c0.203-0.957,0.407-1.913,0.611-2.869c2.656,0.246,5.312,0.503,7.971,0.772c0.043,0.009,0.086,0.019,0.128,0.028
			c0.328,0.385,0.655,0.77,0.982,1.155c-0.203,0.91-0.406,1.821-0.609,2.731c0.532-0.34,1.157-0.669,1.859-0.97
			c0.708-0.309,1.48-0.551,2.322-0.735c0.839-0.182,1.748-0.276,2.719-0.287c0.973-0.007,1.997,0.109,3.061,0.357
			c1.525,0.355,2.939,0.938,4.248,1.739c1.305,0.805,2.375,1.826,3.209,3.068c0.836,1.237,1.39,2.709,1.651,4.407
			c0.275,1.702,0.139,3.623-0.391,5.771c-0.465,1.889-1.255,3.576-2.358,5.078c-1.104,1.498-2.448,2.719-4.047,3.655
			c-1.597,0.934-3.399,1.553-5.409,1.843c-2.013,0.288-4.178,0.17-6.495-0.361c-0.413-0.095-0.842-0.208-1.275-0.334
			c-0.432-0.134-0.853-0.271-1.273-0.422c-0.412-0.153-0.807-0.304-1.188-0.464c-0.378-0.156-0.714-0.307-0.999-0.451
			c-0.255,1.371-0.511,2.742-0.767,4.113c-0.354,1.584-0.709,3.169-1.063,4.753c1.696,0.561,3.391,1.126,5.084,1.696
			c-0.195,0.849-0.391,1.698-0.585,2.547c-4.892-1.124-9.79-2.207-14.694-3.251c0.182-0.852,0.362-1.704,0.544-2.557
			C597.54,226.116,598.841,226.206,600.143,226.299z M608.625,215.368c0.089,0.199,0.266,0.412,0.524,0.637
			c0.27,0.224,0.601,0.448,1,0.676c0.395,0.222,0.856,0.441,1.388,0.642c0.534,0.203,1.092,0.371,1.692,0.508
			c1.179,0.271,2.321,0.333,3.429,0.182c1.111-0.152,2.154-0.55,3.112-1.206c0.976-0.646,1.836-1.58,2.595-2.794
			c0.767-1.213,1.387-2.751,1.866-4.605c0.41-1.664,0.576-3.137,0.469-4.426c-0.106-1.297-0.42-2.409-0.933-3.339
			c-0.512-0.935-1.198-1.691-2.059-2.271c-0.858-0.577-1.83-0.993-2.912-1.242c-0.676-0.156-1.339-0.236-1.977-0.24
			c-0.63,0.003-1.23,0.053-1.795,0.148c-0.562,0.094-1.08,0.232-1.544,0.405c-0.472,0.172-0.862,0.352-1.19,0.538
			C611.069,204.443,609.848,209.906,608.625,215.368z"/>
		<path style="fill:#AA3B24;" d="M632.873,222.762c1.096,0.143,2.19,0.287,3.286,0.434c1.572-6.156,3.146-12.312,4.718-18.467
			c-1.164-0.61-2.33-1.218-3.497-1.824c0.24-0.958,0.481-1.916,0.722-2.873c2.651,0.342,5.304,0.696,7.956,1.062
			c0.042,0.011,0.085,0.022,0.127,0.033c0.341,0.404,0.681,0.808,1.021,1.213c-0.168,0.643-0.336,1.285-0.504,1.927
			c-0.112,0.361-0.225,0.721-0.337,1.082c0.692-0.324,1.537-0.604,2.521-0.846c0.987-0.247,2.011-0.417,3.099-0.511
			c1.08-0.101,2.147-0.125,3.219-0.079c1.071,0.043,2.06,0.188,2.941,0.43c1.928,0.528,3.394,1.239,4.391,2.114
			c1.007,0.885,1.637,1.996,1.917,3.339c0.58-0.224,1.334-0.425,2.245-0.604c0.917-0.184,1.896-0.303,2.929-0.373
			c1.043-0.063,2.102-0.06,3.181,0.017c1.085,0.082,2.078,0.25,2.99,0.518c1.697,0.5,3.053,1.126,4.047,1.862
			c0.994,0.734,1.682,1.619,2.077,2.65c0.407,1.032,0.526,2.236,0.397,3.616c-0.139,1.37-0.481,2.96-1.029,4.762
			c-1.269,4.17-2.536,8.34-3.805,12.51c1.164,0.489,2.328,0.98,3.49,1.475c-0.241,0.78-0.481,1.56-0.722,2.34
			c-4.112-1.269-8.23-2.508-12.354-3.72c0.229-0.783,0.46-1.566,0.689-2.35c1.033,0.16,2.066,0.321,3.099,0.484
			c1.22-4.103,2.438-8.206,3.658-12.309c0.355-1.197,0.598-2.266,0.716-3.187c0.115-0.932,0.064-1.747-0.172-2.454
			c-0.229-0.702-0.673-1.307-1.324-1.809c-0.653-0.502-1.549-0.921-2.705-1.257c-0.574-0.167-1.175-0.272-1.819-0.326
			c-0.637-0.042-1.293-0.051-1.951-0.012c-0.652,0.041-1.272,0.118-1.878,0.223c-0.603,0.104-1.148,0.235-1.633,0.384
			c-0.032,0.734-0.118,1.519-0.281,2.353c-0.152,0.84-0.381,1.737-0.653,2.697c-1.167,4.115-2.333,8.231-3.5,12.346
			c1.199,0.483,2.397,0.969,3.595,1.457c-0.226,0.785-0.451,1.569-0.678,2.353c-4.286-1.234-8.579-2.437-12.879-3.609
			c0.215-0.788,0.43-1.575,0.645-2.363c1.166,0.175,2.332,0.353,3.498,0.532c1.152-4.167,2.305-8.333,3.458-12.5
			c0.329-1.191,0.556-2.242,0.672-3.158c0.129-0.903,0.074-1.703-0.147-2.377c-0.227-0.683-0.641-1.255-1.241-1.722
			c-0.612-0.465-1.466-0.852-2.574-1.152c-0.654-0.177-1.326-0.286-2.021-0.329c-0.706-0.05-1.407-0.042-2.113,0.013
			c-0.705,0.058-1.377,0.156-2.035,0.295c-0.663,0.14-1.269,0.312-1.818,0.52c-1.494,5.698-2.989,11.396-4.483,17.095
			c1.105,0.433,2.209,0.867,3.312,1.303c-0.21,0.789-0.42,1.578-0.63,2.366c-4.137-1.101-8.279-2.174-12.427-3.219
			C632.475,224.345,632.674,223.553,632.873,222.762z"/>
		<path style="fill:#AA3B24;" d="M687.705,226.96c0.599-1.912,1.479-3.546,2.659-4.9c1.173-1.359,2.559-2.404,4.137-3.128
			c1.59-0.731,3.323-1.125,5.216-1.193c1.896-0.065,3.85,0.232,5.862,0.895c3.306,1.088,5.615,2.649,6.938,4.668
			c1.322,2.014,1.582,4.399,0.772,7.148c-0.276,0.868-0.553,1.62-0.818,2.253c-0.271,0.632-0.549,1.171-0.849,1.612
			c-5.865-2.003-11.744-3.948-17.638-5.834c-0.492,1.713-0.689,3.26-0.598,4.637c0.09,1.372,0.392,2.577,0.907,3.608
			c0.508,1.025,1.214,1.894,2.122,2.599c0.895,0.698,1.916,1.24,3.057,1.617c0.712,0.236,1.464,0.423,2.242,0.549
			c0.78,0.13,1.531,0.204,2.287,0.237c0.744,0.024,1.449,0.011,2.113-0.033c0.655-0.051,1.223-0.141,1.707-0.276
			c0.11,0.83,0.221,1.66,0.329,2.49c-0.618,0.269-1.367,0.482-2.259,0.631c-0.895,0.155-1.843,0.232-2.868,0.237
			c-1.006,0.008-2.068-0.068-3.158-0.221c-1.108-0.152-2.183-0.4-3.245-0.749c-2.154-0.708-3.942-1.627-5.363-2.767
			c-1.42-1.141-2.491-2.441-3.21-3.911c-0.721-1.464-1.103-3.059-1.151-4.783C686.849,230.623,687.122,228.827,687.705,226.96z
			 M706.694,229.779c0.118-0.241,0.237-0.512,0.355-0.809c0.115-0.291,0.213-0.557,0.295-0.801c0.246-0.736,0.377-1.462,0.395-2.183
			c0.013-0.712-0.128-1.396-0.397-2.029c-0.271-0.631-0.71-1.206-1.32-1.72c-0.604-0.512-1.439-0.945-2.461-1.28
			c-0.876-0.288-1.729-0.436-2.562-0.463c-0.819-0.016-1.606,0.149-2.368,0.504c-0.745,0.358-1.434,0.93-2.078,1.718
			c-0.64,0.789-1.218,1.845-1.738,3.175C698.78,227.161,702.74,228.457,706.694,229.779z"/>
		<path style="fill:#AA3B24;" d="M712.873,246.663c1.135,0.257,2.27,0.517,3.404,0.778c2.105-5.985,4.21-11.971,6.315-17.957
			c-1.114-0.713-2.229-1.423-3.348-2.132c0.324-0.933,0.648-1.866,0.972-2.798c2.632,0.582,5.264,1.175,7.896,1.779
			c0.043,0.016,0.085,0.031,0.128,0.046c0.301,0.432,0.602,0.863,0.902,1.295c-0.225,0.625-0.448,1.25-0.672,1.875
			c-0.136,0.353-0.271,0.705-0.407,1.057c0.721-0.261,1.573-0.463,2.562-0.617c0.973-0.161,1.997-0.244,3.082-0.255
			c1.068-0.017,2.159,0.055,3.254,0.207c1.087,0.146,2.115,0.399,3.071,0.754c1.668,0.62,2.97,1.333,3.911,2.126
			c0.923,0.791,1.56,1.725,1.87,2.781c0.314,1.063,0.344,2.278,0.105,3.655c-0.254,1.37-0.714,2.946-1.391,4.72
			c-1.543,4.042-3.085,8.083-4.628,12.125c1.146,0.576,2.292,1.155,3.437,1.736c-0.297,0.769-0.595,1.538-0.892,2.308
			c-4.139-1.599-8.285-3.168-12.44-4.706c0.286-0.773,0.572-1.547,0.859-2.32c1.106,0.271,2.213,0.545,3.319,0.821
			c1.514-4.044,3.027-8.088,4.542-12.132c0.432-1.154,0.751-2.183,0.935-3.084c0.192-0.896,0.214-1.697,0.049-2.389
			c-0.148-0.69-0.515-1.298-1.08-1.817c-0.571-0.524-1.393-0.982-2.479-1.382c-0.646-0.238-1.34-0.414-2.053-0.52
			c-0.723-0.107-1.44-0.166-2.159-0.167c-0.722-0.01-1.422,0.032-2.106,0.107c-0.672,0.081-1.303,0.189-1.866,0.332
			c-1.984,5.53-3.969,11.06-5.953,16.59c1.104,0.534,2.206,1.069,3.308,1.607c-0.282,0.775-0.563,1.55-0.845,2.325
			c-4.131-1.5-8.27-2.972-12.415-4.413C712.332,248.221,712.603,247.442,712.873,246.663z"/>
		<path style="fill:#AA3B24;" d="M757.456,240.988c-1.204-0.476-2.409-0.948-3.614-1.418c0.271-0.693,0.541-1.386,0.811-2.08
			c0.238,0.041,0.508,0.071,0.825,0.099c0.312,0.024,0.62,0.045,0.94,0.071c0.308,0.025,0.595,0.04,0.853,0.041
			c0.26,0.008,0.464,0.001,0.593-0.022c0.347-0.074,0.699-0.206,1.038-0.403c0.332-0.197,0.679-0.485,1.04-0.862
			c0.255-0.223,0.553-0.535,0.934-0.928c0.371-0.399,0.741-0.817,1.115-1.247c0.379-0.431,0.734-0.845,1.082-1.245
			c0.335-0.405,0.589-0.724,0.758-0.958c1.11,0.441,2.219,0.885,3.328,1.331c-0.893,2.27-1.785,4.539-2.679,6.809
			c2.838,1.141,5.671,2.296,8.501,3.465c-0.427,1.034-0.854,2.067-1.281,3.101c-2.814-1.162-5.633-2.311-8.455-3.446
			c-1.728,4.296-3.455,8.593-5.183,12.889c-0.492,1.223-0.854,2.191-1.076,2.908c-0.229,0.719-0.326,1.281-0.272,1.699
			c0.05,0.416,0.258,0.746,0.605,0.99c0.342,0.232,0.832,0.482,1.479,0.745c0.006,0.002,0.012,0.004,0.017,0.007
			c0.475,0.192,0.974,0.361,1.534,0.525c0.557,0.161,1.097,0.3,1.63,0.421c0.53,0.123,1.02,0.213,1.485,0.29
			c0.464,0.081,0.832,0.125,1.113,0.139c0.01,0.004,0.019,0.007,0.027,0.011c-0.006,0.808-0.013,1.616-0.02,2.423
			c-0.487,0.112-1.115,0.164-1.89,0.165c-0.763,0.007-1.593-0.052-2.476-0.154c-0.867-0.103-1.754-0.255-2.651-0.447
			c-0.898-0.193-1.711-0.436-2.45-0.733c-0.017-0.007-0.034-0.014-0.051-0.021c-0.977-0.393-1.804-0.823-2.504-1.3
			c-0.698-0.473-1.228-1.016-1.602-1.626c-0.364-0.604-0.557-1.286-0.588-2.046c-0.029-0.763,0.145-1.612,0.515-2.551
			C753.077,252.082,755.267,246.535,757.456,240.988z"/>
	</g>
</g>
<g>
	<path style="fill:#69CCE2;stroke:#AA3B24;stroke-width:2;stroke-miterlimit:10;" d="M46.663,287.464
		c-0.648-1.773-0.484-2.734,1.601-3.053c11.081-1.446,19.111-7.871,29.55-9.475c10.276-1.606,18.307,3.696,24.248,14.129
		c14.769,25.692-13.813,72.585-56.845,86.874c-4.66,1.608-7.551,1.124-10.277-1.116c-1.927-1.611-4.497-3.693-6.747-6.911
		c-3.051-4.174-3.856-6.588-0.483-17.02c4.981-15.094,18.305-40.148,29.386-56.688C50.833,293.883,47.625,289.87,46.663,287.464z
		 M61.432,309.464c-8.028,14.289-21.033,35.642-25.693,50.419c-2.086,6.745-0.961,8.995,3.857,7.228
		c43.835-16.702,64.068-62.629,54.595-77.724c-5.622-8.989-17.344-0.478-28.583,3.215C66.412,296.616,65.445,302.395,61.432,309.464
		z"/>
	<path style="fill:#69CCE2;stroke:#AA3B24;stroke-width:2;stroke-miterlimit:10;" d="M98.088,353.618
		c4.014-11.721,14.612-30.666,20.555-39.019c1.446-1.925,2.568-2.41,3.856-0.966c2.407,2.569,3.695,9.473-0.163,17.51
		c-3.374,7.058-10.114,17.986-13.488,26.014c-3.856,9.308-3.537,15.572,1.602,15.251c7.23-0.321,16.062-10.916,20.88-22
		c0.798-1.446,1.924-1.278,2.57,0c1.282,2.573,0.798,5.944-1.123,9.959c-4.819,9.953-14.939,16.696-23.93,16.696
		C96.645,377.063,93.592,366.785,98.088,353.618z M133.902,311.717c-2.092,2.235-6.583,1.762-8.995-2.419
		c-2.57-4.332-1.765-9.151,0.802-11.884c2.571-2.727,7.226-0.798,9.312,3.537C137.111,305.121,135.988,309.464,133.902,311.717z"/>
	<path style="fill:#69CCE2;stroke:#AA3B24;stroke-width:2;stroke-miterlimit:10;" d="M165.545,381.242
		c-8.833,21.515-20.235,47.05-33.238,52.188c-3.209,1.279-6.428,0.806-9.316-3.37c-3.375-4.819-6.265-10.438-3.211-19.917
		c4.656-14.446,18.471-24.246,34.363-30.345c1.609-3.534,3.052-7.39,4.662-11.082c-4.662,4.659-10.279,8.028-16.221,8.028
		c-14.774,0-17.664-20.07-4.654-39.334c12.521-18.639,25.528-25.862,33.721-25.862c6.419,0,9.631,4.979,9.473,10.596
		c1.929-3.21,3.696-6.098,5.295-8.827c1.288-2.251,2.898-2.409,4.014-0.964c2.415,2.891,3.696,9.791-0.318,17.665
		c-4.819,9.633-14.933,29.061-21.681,44.639c13.495-6.744,22.327-15.578,28.748-24.085c0.968-1.283,2.413-1.283,2.733,0.321
		c0.322,1.445-0.483,4.976-3.216,9.307C190.433,370.003,178.874,376.423,165.545,381.242z M126.207,424.437
		c2.087,3.056,14.769-13.643,25.21-38.057C130.542,398.588,123.476,420.585,126.207,424.437z M174.057,319.743
		c-4.975-0.33-16.699,9.944-25.531,23.918c-8.674,13.812-10.438,27.943-4.013,28.11c6.265,0.154,14.448-9.962,22.641-24.09
		C177.266,330.018,178.711,320.06,174.057,319.743z"/>
	<path style="fill:#69CCE2;stroke:#AA3B24;stroke-width:2;stroke-miterlimit:10;" d="M194.808,353.618
		c4.014-11.721,14.612-30.666,20.556-39.019c1.444-1.925,2.566-2.41,3.854-0.966c2.408,2.569,3.695,9.473-0.162,17.51
		c-3.374,7.058-10.115,17.986-13.488,26.014c-3.856,9.308-3.537,15.572,1.603,15.251c7.229-0.321,16.062-10.916,20.88-22
		c0.798-1.446,1.924-1.278,2.57,0c1.283,2.573,0.799,5.944-1.123,9.959c-4.819,9.953-14.938,16.696-23.93,16.696
		C193.363,377.063,190.311,366.785,194.808,353.618z M230.62,311.717c-2.091,2.235-6.583,1.762-8.995-2.419
		c-2.569-4.332-1.765-9.151,0.804-11.884c2.569-2.727,7.225-0.798,9.312,3.537C233.831,305.121,232.708,309.464,230.62,311.717z"/>
	<path style="fill:#69CCE2;stroke:#AA3B24;stroke-width:2;stroke-miterlimit:10;" d="M236.413,308.018
		c-1.607-2.248-0.647-3.374,1.768-3.215c4.497,0.164,8.987-0.159,13.329-0.642c4.975-8.832,9.473-16.378,12.198-19.914
		c1.446-2.084,3.054-1.922,3.858,0c1.765,4.498,1.765,9.8-2.086,18.148c6.258-0.163,8.67,2.726,9.953,4.819
		c1.123,1.926,0.484,3.048-1.922,3.048c-3.539-0.479-8.513,0-12.526,0.646c-6.264,10.753-15.417,26.334-21.523,39.822
		c-5.296,11.722-3.531,21.679,3.218,22c7.224,0.317,16.377-11.079,22.319-23.125c0.961-1.923,2.726-2.251,3.374,0
		c0.804,2.566,0,5.459-1.609,9.152c-2.083,4.66-12.684,18.791-25.53,18.307c-10.604-0.319-19.11-12.198-11.4-30.668
		c3.372-8.028,10.111-21.518,17.017-34.206C241.391,312.189,237.694,309.782,236.413,308.018z"/>
	<path style="fill:#69CCE2;stroke:#AA3B24;stroke-width:2;stroke-miterlimit:10;" d="M318.966,312.675
		c1.451-2.084,2.731-2.413,3.857-0.958c2.404,2.883,3.693,9.789-0.164,17.816c-3.531,7.224-11.559,19.268-15.416,27.782
		c-4.014,8.995-4.171,15.896,1.287,15.577c6.584-0.321,15.416-11.242,21.039-22.321c0.798-1.441,1.922-1.609,2.57-0.163
		c0.641,1.446,0.641,5.46-1.446,9.959c-4.176,8.832-14.29,17.663-23.124,17.181c-8.676-0.484-13.173-5.622-13.173-13.166
		c-5.14,6.58-12.363,12.523-20.069,12.523c-14.933,0-17.986-20.397-4.656-39.826c13.004-18.944,25.692-26.172,33.723-26.172
		c6.902,0,10.112,5.296,9.793,11.562C315.279,318.618,317.2,315.243,318.966,312.675z M306.125,319.261
		c-5.139-0.489-16.869,9.953-25.693,24.245c-8.514,13.81-10.604,27.938-4.34,28.099c6.583,0.167,14.937-10.112,23.122-24.251
		C309.335,329.688,310.779,319.743,306.125,319.261z"/>
	<path style="fill:#69CCE2;stroke:#AA3B24;stroke-width:2;stroke-miterlimit:10;" d="M341.325,372.254
		c7.708,0.639,18.945-10.93,25.208-23.292c1.126-2.083,2.892-2.247,3.532,0c0.804,2.571,0.164,6.102-1.602,9.959
		c-2.248,4.817-13.971,18.143-26.818,17.823c-11.081-0.321-17.025-8.028-13.33-25.374c5.943-27.933,24.249-57.003,40.626-74.026
		c2.41-2.57,4.66-2.891,6.907-0.804c4.658,4.176,5.617,10.12,3.696,17.664c-4.982,19.748-22.967,39.023-37.259,48.34
		C335.866,358.282,334.095,371.604,341.325,372.254z M374.078,290.832c-2.084-1.284-13.964,16.541-25.045,37.094
		c-1.446,2.571-2.733,5.139-3.857,7.707C367.175,317.809,376.169,292.119,374.078,290.832z"/>
	<path style="fill:#69CCE2;stroke:#AA3B24;stroke-width:2;stroke-miterlimit:10;" d="M409.763,356.508
		c6.423,5.143,17.345,13.495,27.784,13.495c4.49,0,7.866-1.125,9.95-2.893c2.733-3.052,1.929-6.428-0.317-8.354
		c-8.511-7.224-33.878-17.18-33.878-33.721c0-21.999,24.882-40.79,39.182-46.89c7.7-3.21,15.412-4.498,20.706,0.321
		c4.018,3.695,6.909,8.997,8.035,13.488c1.601,6.425-2.249,12.688-4.659,16.062c-4.173,5.616-8.837,13.811-11.084,17.819
		c-0.796,1.452-1.764,2.252-3.53,0.488c-3.05-3.056-4.977-8.033-1.609-15.581c3.376-7.707,15.416-21.038,11.567-25.053
		c-5.46-5.616-44.965,18.952-45.763,39.025c-0.483,10.44,20.067,18.944,29.062,25.371c6.102,4.336,5.303,11.722-1.766,19.915
		c-9.631,11.077-37.573,14.13-60.222-13.168c-1.765-2.092-1.123-3.217,0.32-3.696C398.844,351.533,405.428,352.981,409.763,356.508z
		"/>
	<path style="fill:#69CCE2;stroke:#AA3B24;stroke-width:2;stroke-miterlimit:10;" d="M483.021,308.018
		c-1.604-2.248-0.637-3.374,1.764-3.215c4.502,0.164,8.995-0.159,13.334-0.642c4.973-8.832,9.474-16.378,12.201-19.914
		c1.44-2.084,3.051-1.922,3.854,0c1.765,4.498,1.765,9.8-2.088,18.148c6.269-0.163,8.671,2.726,9.953,4.819
		c1.126,1.926,0.485,3.048-1.926,3.048c-3.534-0.479-8.511,0-12.521,0.646c-6.265,10.753-15.416,26.334-21.524,39.822
		c-5.293,11.722-3.529,21.679,3.219,22c7.224,0.317,16.377-11.079,22.316-23.125c0.963-1.923,2.727-2.251,3.375,0
		c0.801,2.566,0,5.459-1.607,9.152c-2.084,4.66-12.68,18.791-25.531,18.307c-10.6-0.319-19.109-12.198-11.401-30.668
		c3.37-8.028,10.113-21.518,17.017-34.206C488,312.189,484.303,309.782,483.021,308.018z"/>
	<path style="fill:#69CCE2;stroke:#AA3B24;stroke-width:2;stroke-miterlimit:10;" d="M526.559,372.571
		c13.33,0.641,25.051-12.204,31.953-22.801c0.811-1.292,2.085-1.292,2.734,0.154c0.645,1.288,0.16,5.787-2.734,9.958
		c-6.743,9.799-19.107,17.181-31.471,17.344c-20.397,0.321-27.458-19.753-17.022-40.47c10.438-20.711,26.819-29.068,34.846-24.404
		c4.012,2.405,6.904,4.819,9.473,8.351c2.893,3.851,1.607,13.649-5.137,21.841c-7.868,9.627-18.632,13.809-29.868,4.655
		C514.195,361.977,518.047,372.087,526.559,372.571z M539.889,335.633c5.136-6.74,8.67-15.099,6.42-16.861
		c-3.377-2.726-16.698,6.907-24.252,22.164c-0.475,0.962-0.957,1.93-1.28,2.726C528.643,348.646,535.229,341.744,539.889,335.633z"
		/>
	<path style="fill:#69CCE2;stroke:#AA3B24;stroke-width:2;stroke-miterlimit:10;" d="M605.108,311.717
		c5.302,0.79,10.274,8.664,6.266,17.013c-3.376,7.069-11.237,18.952-14.935,27.302c-4.177,9.312-3.213,16.861,2.571,16.54
		c6.581-0.317,14.448-10.921,20.559-22.163c0.799-1.446,1.924-1.446,2.727-0.161c1.115,1.771,0.8,5.465-1.452,10.12
		c-4.326,8.987-14.447,17.181-23.762,17.181c-13.652,0-16.86-9.958-12.21-23.93c5.302-15.735,19.435-32.753,16.539-34.042
		c-1.601-0.643-10.911,3.861-21.189,15.099c-9.476,10.277-16.54,25.692-23.448,40.789c-0.638,1.441-1.605,2.084-3.053,0.638
		c-3.21-3.209-4.169-8.512-1.606-16.541c3.215-10.115,15.576-32.431,25.692-47.371c1.121-1.767,2.415-1.599,3.373,0
		c2.412,4.014,2.25,9.471,0.482,15.258C588.891,319.743,599.811,310.907,605.108,311.717z"/>
	<path style="fill:#69CCE2;stroke:#AA3B24;stroke-width:2;stroke-miterlimit:10;" d="M666.16,321.506
		c3.378,6.74-3.051,15.251-6.26,23.931c-0.645,1.917-1.284,2.399-3.377,1.278c-3.845-1.927-6.095-6.749-3.845-13.971
		c1.76-5.782,6.577-12.685,4.337-14.452c-2.734-2.246-14.782,8.033-22,22.644c-8.837,18.143-5.459,31.473,4.008,31.636
		c13.49,0.158,25.054-12.688,31.642-22.801c0.797-1.292,2.239-1.449,2.891,0.154c0.475,1.288-0.166,5.302-2.891,9.636
		c-6.106,9.477-18.792,17.345-30.995,17.503c-20.386,0.327-27.304-19.59-16.867-40.307c10.279-20.23,26.503-28.901,34.529-24.082
		C661.666,315.243,664.237,317.809,666.16,321.506z"/>
	<path style="fill:#69CCE2;stroke:#AA3B24;stroke-width:2;stroke-miterlimit:10;" d="M667.951,353.618
		c4.021-11.721,14.615-30.666,20.561-39.019c1.441-1.925,2.565-2.41,3.859-0.966c2.398,2.569,3.691,9.473-0.167,17.51
		c-3.378,7.058-10.11,17.986-13.489,26.014c-3.851,9.308-3.532,15.572,1.602,15.251c7.236-0.321,16.062-10.916,20.883-22
		c0.8-1.446,1.924-1.278,2.566,0c1.287,2.573,0.801,5.944-1.115,9.959c-4.82,9.953-14.939,16.696-23.936,16.696
		C666.51,377.063,663.459,366.785,667.951,353.618z M703.766,311.717c-2.094,2.235-6.578,1.762-8.996-2.419
		c-2.565-4.332-1.758-9.151,0.81-11.884c2.568-2.727,7.221-0.798,9.312,3.537C706.976,305.121,705.858,309.464,703.766,311.717z"/>
	<path style="fill:#69CCE2;stroke:#AA3B24;stroke-width:2;stroke-miterlimit:10;" d="M714.221,372.254
		c7.703,0.639,18.94-10.93,25.209-23.292c1.126-2.083,2.875-2.247,3.535,0c0.799,2.571,0.157,6.102-1.608,9.959
		c-2.254,4.817-13.981,18.143-26.818,17.823c-11.082-0.321-17.024-8.028-13.33-25.374c5.941-27.933,24.249-57.003,40.63-74.026
		c2.409-2.57,4.652-2.891,6.902-0.804c4.66,4.176,5.628,10.12,3.686,17.664c-4.968,19.748-22.958,39.023-37.248,48.34
		C708.76,358.282,706.984,371.604,714.221,372.254z M746.974,290.832c-2.092-1.284-13.972,16.541-25.05,37.094
		c-1.451,2.571-2.735,5.139-3.852,7.707C740.062,317.809,749.059,292.119,746.974,290.832z"/>
</g>
</svg>
